<?xml version="1.0" encoding="utf-8"?>
<!-- Generator: Adobe Illustrator 26.1.0, SVG Export Plug-In . SVG Version: 6.00 Build 0)  -->
<svg version="1.1" id="a" xmlns="http://www.w3.org/2000/svg" xmlns:xlink="http://www.w3.org/1999/xlink" x="0px" y="0px"
	 viewBox="0 0 200 200" style="enable-background:new 0 0 200 200;" xml:space="preserve">
<style type="text/css">
	.st0{fill:#763D33;}
	.st1{fill:#88614B;}
	.st2{opacity:0.6;}
	.st3{fill:#493038;}
	.st4{fill:#543300;}
	.st5{clip-path:url(#SVGID_00000109729195769359820010000009255236557255678618_);}
	.st6{fill:#805B49;}
	.st7{fill:#835E4C;}
	.st8{fill:#86614E;}
	.st9{fill:#886351;}
	.st10{fill:#8B6653;}
	.st11{fill:#8D6855;}
	.st12{fill:#906B58;}
	.st13{fill:#926D5A;}
	.st14{fill:#956F5C;}
	.st15{fill:#97725E;}
	.st16{fill:#997460;}
	.st17{fill:#9D7864;}
	.st18{fill:#9F7A66;}
	.st19{fill:#A17C68;}
	.st20{fill:#A37E69;}
	.st21{fill:#A5806B;}
	.st22{fill:#A7816D;}
	.st23{fill:#A9836E;}
	.st24{fill:#AA8570;}
	.st25{fill:#AC8671;}
	.st26{fill:#AE8873;}
	.st27{fill:#AF8974;}
	.st28{fill:#B18B76;}
	.st29{fill:#B28C77;}
	.st30{fill:#B38E78;}
	.st31{fill:#B7917C;}
	.st32{fill:#B8937D;}
	.st33{fill:#B9947E;}
	.st34{fill:#BA957F;}
	.st35{fill:#BB9680;}
	.st36{fill:#BC9781;}
	.st37{fill:#BD9881;}
	.st38{fill:#BE9882;}
	.st39{fill:#BF9983;}
	.st40{fill:#C09A84;}
	.st41{fill:#C19B84;}
	.st42{fill:#C19C85;}
	.st43{fill:#C29C86;}
	.st44{fill:#C39D86;}
	.st45{fill:#C39D87;}
	.st46{fill:#C49E87;}
	.st47{fill:#C59F88;}
	.st48{fill:#C6A089;}
	.st49{fill:#C6A08A;}
	.st50{fill:#C7A18A;}
	.st51{fill:#C7A28B;}
	.st52{fill:#C8A28B;}
	.st53{fill:#C9A38C;}
	.st54{fill:#CAA48D;}
	.st55{clip-path:url(#SVGID_00000040534229488360033710000011885759475476023945_);}
	.st56{fill:#D9AE95;}
	.st57{fill:#D8AD94;}
	.st58{fill:#D7AC93;}
	.st59{fill:#D6AB92;}
	.st60{fill:#D5AA91;}
	.st61{fill:#D4A990;}
	.st62{fill:#D3A890;}
	.st63{fill:#D1A68E;}
	.st64{fill:#D0A68D;}
	.st65{fill:#CFA58C;}
	.st66{fill:#CEA48B;}
	.st67{fill:#CDA38A;}
	.st68{fill:#CCA289;}
	.st69{fill:#CBA188;}
	.st70{fill:#CAA087;}
	.st71{fill:#C99F86;}
	.st72{fill:#C89E86;}
	.st73{fill:#C79D85;}
	.st74{fill:#C69C84;}
	.st75{fill:#C59B83;}
	.st76{fill:#C49A82;}
	.st77{fill:#C39981;}
	.st78{fill:#C29880;}
	.st79{fill:#C1977F;}
	.st80{fill:#C0967E;}
	.st81{fill:#BF957D;}
	.st82{fill:#BE947C;}
	.st83{fill:#BD937B;}
	.st84{fill:#BC927A;}
	.st85{fill:#BB917A;}
	.st86{fill:#BA9079;}
	.st87{fill:#B98F78;}
	.st88{fill:#B88F77;}
	.st89{fill:#B68D75;}
	.st90{fill:#B58C74;}
	.st91{fill:#B48B73;}
	.st92{fill:#B38A72;}
	.st93{fill:#B28971;}
	.st94{fill:#B18870;}
	.st95{fill:#B0876F;}
	.st96{fill:#AF866E;}
	.st97{fill:#AE856D;}
	.st98{fill:#AD846D;}
	.st99{fill:#AC836C;}
	.st100{fill:#AB826B;}
	.st101{fill:#AA816A;}
	.st102{fill:#A98069;}
	.st103{fill:#A77E67;}
	.st104{fill:#A67D66;}
	.st105{fill:#A57C65;}
	.st106{fill:#A47B64;}
	.st107{fill:#A37A63;}
	.st108{fill:#A27962;}
	.st109{fill:#A07861;}
	.st110{fill:#9F7760;}
	.st111{fill:#9E7660;}
	.st112{fill:#9D755F;}
	.st113{fill:#9C745E;}
	.st114{fill:#9B735D;}
	.st115{fill:#9A725C;}
	.st116{fill:#99715B;}
	.st117{fill:#98715A;}
	.st118{fill:#977059;}
	.st119{fill:#966F58;}
	.st120{fill:#956E57;}
	.st121{fill:#946D56;}
	.st122{fill:#936C55;}
	.st123{fill:#926B54;}
	.st124{fill:#916A53;}
	.st125{fill:#906952;}
	.st126{fill:#8F6852;}
	.st127{fill:#8E6751;}
	.st128{fill:#8D6650;}
	.st129{fill:#8C654F;}
	.st130{fill:#8B644E;}
	.st131{fill:#8A634D;}
	.st132{fill:#89624C;}
	.st133{clip-path:url(#SVGID_00000087394853711597359730000005252232839670076562_);}
	.st134{fill:#D7AD94;}
	.st135{fill:#D6AC93;}
	.st136{fill:#D4A991;}
	.st137{fill:#D3A88F;}
	.st138{fill:#D1A78E;}
	.st139{fill:#D1A68D;}
	.st140{fill:#CFA48C;}
	.st141{fill:#CCA28A;}
	.st142{fill:#CCA189;}
	.st143{fill:#CBA088;}
	.st144{fill:#BB927A;}
	.st145{fill:#BA9179;}
	.st146{fill:#B99078;}
	.st147{fill:#B88E77;}
	.st148{fill:#B78D76;}
	.st149{fill:#B38972;}
	.st150{fill:#B18871;}
	.st151{fill:#AE866E;}
	.st152{fill:#AC836B;}
	.st153{fill:#A77F67;}
	.st154{fill:#A27A63;}
	.st155{fill:#A17962;}
	.st156{fill:#9E755F;}
	.st157{fill:#9C745D;}
	.st158{fill:#976F58;}
	.st159{fill:#956D57;}
	.st160{fill:#916A54;}
	.st161{fill:#906852;}
	.st162{fill:#8E6650;}
	.st163{fill:#8C654E;}
	.st164{fill:#BF8063;}
	.st165{fill:#F0DBD5;}
	.st166{fill:#886A65;}
	.st167{fill:#361D11;}
	.st168{clip-path:url(#SVGID_00000162331199409785220500000007851914628645413277_);}
	.st169{clip-path:url(#SVGID_00000026859993072267399480000018209125598338928033_);}
	.st170{clip-path:url(#SVGID_00000160172286512157185410000009872527263104808105_);}
</style>
<g>
	<g>
		<g>
			<g>
				<path class="st0" d="M116.4,145.8c-1.3,1.9-0.5,2.9-2.4,6.8c-1.2,2.3-1.8,2.7-2,4.2c-0.1,1.6,0.2,3.8,0.4,4.9
					c0.2,1.2,0.4,1.8,0,2.5c-0.4,0.8-1.2,0.9-2.2,1.5c-1.4,0.8-2.1,1.8-3.3,3.4c-1.3,1.8-1.8,3.3-2.4,5.1c-0.3,0.9-0.6,1.9-0.2,2.1
					c0.4,0.2,1.3-0.6,1.5-0.4c0.2,0.2-0.8,1.2-1.1,2.5c-0.5,1.9,0.7,3.7,1.3,4.6c0.6,0.9,2,3.2,3.7,3c0.8-0.1,1.3-0.7,2.2-1.7
					c0.9-1,1.1-1.6,1.7-2.8c0.3-0.6,2.5-4.1,3.7-3.8c0.5,0.1,0.7,0.9,0.9,1.5c0.3,1.2-0.2,1.6,0,2.5c0.3,1.9,2.9,3.2,3.2,3.4l0,0
					c0.8,0.4,1.8-0.3,2-0.4c0.8-0.5,1-1.3,1.5-2.5c0.1-0.2,0.9-2.1,2-3.8c1.2-2,2.3-2.6,2-3.4c-0.2-0.5-1-0.3-1.5-0.8
					c-0.7-0.8-0.2-2.1,0-3c0.8-3.6-2.5-5.2-2.2-9.1c0.1-1.8,0.9-2.3,1.7-4.2c2.5-5.5,2.3-14-1.3-15.8
					C123.1,140.7,118.3,142.8,116.4,145.8L116.4,145.8z"/>
				<path class="st0" d="M80.2,129.8c-0.5,1-2.2,2.6-2.9,4.5c-1.5,3.9-1.3,4.7-2.6,8.9c-2.2,7.1-3.5,6.9-3.7,10.6
					c-0.1,1.9,0.2,3.3-0.9,4.4c-1.2,1.3-2.7,0.6-5,1.9c-1.2,0.6-2,1.6-3.7,3.6c-2,2.4-3.2,3.8-3.9,5.9c-0.5,1.5-1.2,4.6,0,5.3
					c1.1,0.7,3.6-1.3,5.2-2.5c1.3-1,1.5-1.4,3.5-3c1.2-1,2.2-1.6,3.5-1.9c1.1-0.3,2.3-0.3,2.4,0c0.1,0.2-0.9,0.6-2.6,1.7
					c-0.6,0.4-1.4,0.9-2.2,1.7c-1.1,1.1-1.7,2.2-2.2,3.4c-0.5,1-1.2,2.8-1.3,5.1c0,0.8-0.1,2.7,0.6,3c0.6,0.2,1.3-0.9,2.2-1.9
					c2.1-2.2,4.7-3.1,9.1-4.4c3.7-1.1,4.8-0.9,6.1-2.3c0.7-0.8,0.7-1.2,2-3.2c1.3-2,1.8-2.4,2.8-3.8c1.4-2,2.1-3.8,3.5-7.2
					c1.4-3.7,1.5-4.8,1.3-5.7c-0.1-0.5-0.3-1.8-1.3-3c-1.4-1.8-2.9-1.4-3.7-2.5c-1.3-1.8,1.2-4.4,1.5-7.2
					C88.2,138.6,87.6,134.8,80.2,129.8L80.2,129.8z"/>
				<g>
					<g>
						<path class="st1" d="M124.2,51.4c0.1-0.4,0.8-3.5,3.5-5.2c0.6-0.4,2.5-1,4.6-1.1c1.3-0.1,1.6,0,3.1,0.1c1.3,0,1.8,0.5,2.6,0.6
							c1.7,0.1,2.7,2.2,3.1,3c0.8,1.6,1,3.1,1,3.8c0.1,1-0.1,3.6-4.8,10.4c-2.6,3.8-4.1,6-5.7,5.7c-1-0.2-1.5-1.2-3.5-5.7
							C124.3,54.5,123.7,53.4,124.2,51.4L124.2,51.4z"/>
						<g class="st2">
							<path class="st3" d="M130.8,68.1c1-0.1,0.9-1.3,3.9-6.1c2.5-4,3.7-4.8,4.3-7.5c0.4-1.5,1-4-0.5-5.6c-1.5-1.6-4.3-1.1-5.8-0.9
								c-0.7,0.1-5.2,0.9-7.4,4.2C121.2,58.4,127.8,68.4,130.8,68.1L130.8,68.1z"/>
						</g>
						<g>
							<path class="st4" d="M87.4,25.5c-1.5-0.1-3.1,0.2-4.6,0.6c-4.9,1.1-10.4,2.5-13,6.8c1.2-0.2,2.3-0.2,3.5-0.2
								c-4.7,2.8-8.4,7.3-10.1,12.4c2.1-1.2,4.3-2.3,6.5-3.4c1-0.5,2.3-1,3.3-0.5c-2,1.1-3.9,2.6-5.5,4.3c1.1-0.5,2.4-0.7,3.7-0.5
								c-1.6,0.9-3.3,1.9-4.4,3.3c-1.2,1.4-1.9,3.3-1.4,5.1c2.9-3.2,5.8-6.3,8.7-9.5c2-2.2,4.1-4.5,6.6-6.1c2.5-1.7,5.7-2.7,8.7-2.1
								c1.8,0.3,3.4,1.2,5.1,1.9c2.3,1,4.8,1.8,7.3,2.3c1.2,0.2,2.5,0.4,3.5-0.2c0.5-0.3,0.9-0.8,1.4-1.1c1.1-0.7,2.5-0.4,3.7-0.2
								c1.3,0.2,2.7,0.5,3.7,1.4c0.2,0.2,0.4,0.4,0.7,0.5c0.2,0,0.4,0,0.7,0c1,0,1.8,0.7,2.3,1.5s0.9,1.7,1.6,2.4
								c1.3,1.3,3.4,1.5,5.2,1.6c1.3,0.1,2.6,0.2,3.9,0.2c-3.1-2.4-6.2-4.8-9.3-7.2c3.1,0,6.2,0.1,9.4,0.1
								c-3.9-2.1-8.2-3.7-12.5-4.7c3.3-0.2,6.6-0.4,9.8-0.6c-1.8-1.7-4.6-1.8-7.1-1.7c-4.7,0.2-9.4,0.9-14,2l10.8-6.3
								c1.2-0.7,2.3-1.4,3.6-1.8c-2.3-0.7-4.8-0.2-7.2,0.3c-2.3,0.5-4.5,1.1-6.8,1.8c2.5-2.2,5-4.3,7.7-6.3
								c-0.2,0.2-2.1-0.3-2.5-0.4c-0.9-0.1-1.8-0.1-2.7-0.1c-1.8,0-3.6,0.3-5.3,0.8c-3.6,0.9-6.6,2.7-9.5,4.9
								c-1,0.8-1.3,0.2-2.4-0.3C89.6,25.9,88.5,25.6,87.4,25.5L87.4,25.5z"/>
							<g>
								<defs>
									<path id="SVGID_1_" d="M88,35.4c-4.9,0.2-8.7,3.4-10.2,4.7c-2,1.7-3.1,3.3-4.6,5.3c-1.8,2.5-3.4,4.8-4.3,8.2
										c-0.4,1.5-1.2,4.5-0.4,8.2c0.5,2.4,1.4,4.1,2.2,5.5c1.5,2.7,3.1,4.5,4.8,6.3c3.1,3.4,4.1,3.5,5.9,5.9
										c1.8,2.4,2.5,4.6,3.1,6.3c1.8,5.6,1.4,10.4,0.9,15.2c-0.5,4.5-1.3,8.1-2.8,14.4c-0.3,1.3-1.1,4.6-1.7,9.1
										c-0.7,5.1-0.4,6.5-0.2,7.4c0.8,3.2,2.9,5.1,5.2,7.4c1.6,1.5,4.3,4.1,8.7,5.9c5.4,2.2,10,1.9,13.9,1.7
										c5.4-0.3,11.1-0.7,15.9-4.6c2.9-2.4,4.8-5.7,5.4-6.8c1.4-2.4,1.3-3.2,2.6-6.1c2.8-6.3,4.7-6.4,6.1-10.3
										c0.4-1.2,0.3-4.6,0-11.4c-0.4-10.5-0.5-11.6-0.9-13.9c-0.1-0.8-0.7-4.4-2-9.1c-1.1-4-1.6-4.9-2.4-8.4
										c-1.3-5.7-0.3-5.2-1.3-8c-1.7-4.9-4.6-5.8-6.3-11c-0.6-1.8-1-3-1.1-4.7c-0.1-1.9,0.3-2.5-0.2-3.6c-0.6-1.5-1.6-1.4-3.1-3.2
										c-1.3-1.7-0.8-2.4-2-3.8c-1-1.2-2.2-1.8-4.8-2.8c-2.5-1-4.8-1.9-7.8-1.9c-2.8,0-3.1,0.8-5.7,1.1
										C94.9,39.1,93.6,35.2,88,35.4L88,35.4z"/>
								</defs>
								<clipPath id="SVGID_00000145745883967874562290000010280405029210627747_">
									<use xlink:href="#SVGID_1_"  style="overflow:visible;"/>
								</clipPath>
								<g style="clip-path:url(#SVGID_00000145745883967874562290000010280405029210627747_);">
									<rect x="67.7" y="35.2" class="st6" width="71" height="112.3"/>
									<ellipse class="st6" cx="99.4" cy="64.3" rx="35.4" ry="34.4"/>
									<ellipse class="st7" cx="99.4" cy="63.9" rx="35" ry="33.9"/>
									<ellipse class="st8" cx="99.3" cy="63.5" rx="34.5" ry="33.5"/>
									<ellipse class="st9" cx="99.3" cy="63.2" rx="34.1" ry="33.1"/>
									<ellipse class="st10" cx="99.2" cy="62.8" rx="33.7" ry="32.7"/>
									<ellipse class="st11" cx="99.2" cy="62.4" rx="33.3" ry="32.3"/>
									<ellipse class="st12" cx="99.2" cy="62" rx="32.8" ry="31.9"/>
									<ellipse class="st13" cx="99.1" cy="61.6" rx="32.4" ry="31.4"/>
									<ellipse class="st14" cx="99.1" cy="61.2" rx="32" ry="31"/>
									<ellipse class="st15" cx="99" cy="60.8" rx="31.5" ry="30.6"/>
									<ellipse class="st16" cx="99" cy="60.4" rx="31.1" ry="30.2"/>
									<ellipse class="st17" cx="98.9" cy="59.7" rx="30.3" ry="29.4"/>
									<ellipse class="st18" cx="98.9" cy="59.3" rx="29.8" ry="28.9"/>
									<ellipse class="st19" cx="98.8" cy="58.9" rx="29.4" ry="28.5"/>
									<ellipse class="st20" cx="98.8" cy="58.5" rx="29" ry="28.1"/>
									<ellipse class="st21" cx="98.8" cy="58.1" rx="28.5" ry="27.7"/>
									<ellipse class="st22" cx="98.7" cy="57.7" rx="28.1" ry="27.3"/>
									<ellipse class="st23" cx="98.7" cy="57.3" rx="27.7" ry="26.9"/>
									<ellipse class="st24" cx="98.6" cy="56.9" rx="27.2" ry="26.5"/>
									<ellipse class="st25" cx="98.6" cy="56.6" rx="26.8" ry="26"/>
									<ellipse class="st26" cx="98.6" cy="56.2" rx="26.4" ry="25.6"/>
									<ellipse class="st27" cx="98.5" cy="55.8" rx="26" ry="25.2"/>
									<ellipse class="st28" cx="98.5" cy="55.4" rx="25.5" ry="24.8"/>
									<ellipse class="st29" cx="98.4" cy="55" rx="25.1" ry="24.4"/>
									<ellipse class="st30" cx="98.4" cy="54.6" rx="24.7" ry="23.9"/>
									<ellipse class="st31" cx="98.3" cy="53.5" rx="23.4" ry="22.7"/>
									<ellipse class="st32" cx="98.2" cy="53.1" rx="23" ry="22.3"/>
									<ellipse class="st33" cx="98.2" cy="52.7" rx="22.5" ry="21.9"/>
									<ellipse class="st34" cx="98.1" cy="52.3" rx="22.1" ry="21.4"/>
									<ellipse class="st35" cx="98.1" cy="51.9" rx="21.7" ry="21"/>
									<ellipse class="st36" cx="98.1" cy="51.5" rx="21.2" ry="20.6"/>
									<ellipse class="st37" cx="98" cy="51.1" rx="20.8" ry="20.2"/>
									<ellipse class="st38" cx="98" cy="50.7" rx="20.4" ry="19.8"/>
									<ellipse class="st39" cx="97.9" cy="50.3" rx="20" ry="19.4"/>
									<ellipse class="st40" cx="97.9" cy="50" rx="19.5" ry="19"/>
									<ellipse class="st41" cx="97.9" cy="49.6" rx="19.1" ry="18.5"/>
									<ellipse class="st42" cx="97.8" cy="49.2" rx="18.7" ry="18.1"/>
									<ellipse class="st43" cx="97.8" cy="48.8" rx="18.2" ry="17.7"/>
									<ellipse class="st44" cx="97.7" cy="48.4" rx="17.8" ry="17.3"/>
									<ellipse class="st45" cx="97.7" cy="48" rx="17.4" ry="16.9"/>
									<ellipse class="st46" cx="97.7" cy="47.6" rx="17" ry="16.5"/>
									<ellipse class="st47" cx="97.6" cy="47.2" rx="16.5" ry="16"/>
									<ellipse class="st47" cx="97.6" cy="46.8" rx="16.1" ry="15.6"/>
									<ellipse class="st48" cx="97.5" cy="46.5" rx="15.7" ry="15.2"/>
									<ellipse class="st48" cx="97.5" cy="46.1" rx="15.2" ry="14.8"/>
									<ellipse class="st49" cx="97.4" cy="45.7" rx="14.8" ry="14.4"/>
									<ellipse class="st50" cx="97.4" cy="45.3" rx="14.4" ry="14"/>
									<ellipse class="st50" cx="97.4" cy="44.9" rx="13.9" ry="13.5"/>
									<ellipse class="st51" cx="97.3" cy="44.5" rx="13.5" ry="13.1"/>
									<ellipse class="st52" cx="97.3" cy="44.1" rx="13.1" ry="12.7"/>
									<ellipse class="st52" cx="97.2" cy="43.7" rx="12.7" ry="12.3"/>
									<ellipse class="st52" cx="97.2" cy="43.3" rx="12.2" ry="11.9"/>
									<ellipse class="st53" cx="97.2" cy="43" rx="11.8" ry="11.5"/>
									<ellipse class="st53" cx="97.1" cy="42.6" rx="11.4" ry="11"/>
									<ellipse class="st53" cx="97.1" cy="42.2" rx="10.9" ry="10.6"/>
									<ellipse class="st53" cx="97" cy="41.8" rx="10.5" ry="10.2"/>
									<ellipse class="st53" cx="97" cy="41.4" rx="10.1" ry="9.8"/>
									<ellipse class="st53" cx="97" cy="41" rx="9.7" ry="9.4"/>
									<ellipse class="st54" cx="96.9" cy="40.6" rx="9.2" ry="9"/>
									<ellipse class="st54" cx="96.9" cy="40.2" rx="8.8" ry="8.5"/>
									<ellipse class="st54" cx="96.8" cy="39.8" rx="8.4" ry="8.1"/>
									<ellipse class="st54" cx="96.8" cy="39.5" rx="7.9" ry="7.7"/>
									<ellipse class="st54" cx="96.8" cy="39.1" rx="7.5" ry="7.3"/>
									<ellipse class="st54" cx="96.7" cy="38.7" rx="7.1" ry="6.9"/>
									<ellipse class="st54" cx="96.7" cy="38.3" rx="6.7" ry="6.5"/>
									<ellipse class="st54" cx="96.6" cy="37.9" rx="6.2" ry="6"/>
									<ellipse class="st54" cx="96.6" cy="37.5" rx="5.8" ry="5.6"/>
									<ellipse class="st54" cx="96.6" cy="37.1" rx="5.4" ry="5.2"/>
									<ellipse class="st54" cx="96.5" cy="36.7" rx="4.9" ry="4.8"/>
									<ellipse class="st54" cx="96.5" cy="36.3" rx="4.5" ry="4.4"/>
									<ellipse class="st54" cx="96.4" cy="36" rx="4.1" ry="4"/>
								</g>
							</g>
						</g>
					</g>
					<g>
						<defs>
							<path id="SVGID_00000179621943288965103000000011959778211035021454_" d="M79.6,134.8c-1.1-0.4-2-0.4-2.7-0.2
								c0,0-0.1,0-0.1,0c-0.1-0.4-0.1-0.8-0.2-1.4c-0.1-2.2,0.4-3.6,0.9-5.4c1.1-4,0.4-4.3,1.3-8.8c0.7-3.3,1.5-5.6,2.4-7.9
								c2.9-7.8,6-8.2,5-12c-1.5-5.7,0.2-14.5-3.3-10.4c0,0-2.9,3.6-5.9,10.9c-2.3,5.7-3.9,10.2-4.3,11.6c-1.7,4.9-1.2,4-4.3,14.5
								c-1.9,6.3-2.6,8.5-2.3,9.8c-0.1,0.1-0.2,0.1-0.3,0.2c-0.7,0.6-1.1,1.4-1.3,2.7c-0.5,2-0.5,5,0.5,8.7c1.2,4.5,3.4,5.9,3.9,3.5
								c0.3-1.2-0.1-2.6-0.3-4.1c0.1,0,0.1,0,0.2,0c0.1,1.1,0.4,2.3,0.7,3.6c1.2,4.6,3.4,6,3.9,3.6c0.2-1.2-0.1-2.5-0.3-4.1
								c0.1,0.3,0.1,0.5,0.2,0.8c1.1,4.1,3.1,5.3,3.6,3.1c0.4-1.8-0.6-3.8-0.5-6.8c0-0.3,0-0.5,0-0.8c0.3,0.9,0.8,1.9,1.3,3
								c2,3.7,4.3,4.4,4.3,2.1c0-1.9-1.4-3.6-2-6.4c-0.6-3.4-1.1-5.3-1.8-6.2c0.6,0.3,1.1,0.7,1.7,1.3c2.9,3,4.1,3.7,4.7,1.9
								C85.2,139.8,83.9,136.4,79.6,134.8L79.6,134.8z"/>
						</defs>
						<clipPath id="SVGID_00000018205168090874620240000010362481575295548549_">
							<use xlink:href="#SVGID_00000179621943288965103000000011959778211035021454_"  style="overflow:visible;"/>
						</clipPath>
						<g style="clip-path:url(#SVGID_00000018205168090874620240000010362481575295548549_);">
							<polygon class="st56" points="65.6,155.8 63.9,151.2 63.9,120.9 87.2,112.4 87.2,155.8 							"/>
							<polygon class="st56" points="63.9,120.7 87.2,112.3 87.2,112.4 63.9,120.9 							"/>
							<polygon class="st57" points="63.9,120.6 87.2,112.1 87.2,112.3 63.9,120.7 							"/>
							<polygon class="st58" points="63.9,120.4 87.2,112 87.2,112.1 63.9,120.6 							"/>
							<polygon class="st59" points="63.9,120.3 87.2,111.8 87.2,112 63.9,120.4 							"/>
							<polygon class="st60" points="63.9,120.1 87.2,111.7 87.2,111.8 63.9,120.3 							"/>
							<polygon class="st61" points="63.9,119.9 87.2,111.5 87.2,111.7 63.9,120.1 							"/>
							<polygon class="st62" points="63.9,119.8 87.2,111.4 87.2,111.5 63.9,119.9 							"/>
							<polygon points="63.9,119.6 87.2,111.2 87.2,111.4 63.9,119.8 							"/>
							<polygon class="st63" points="63.9,119.5 87.2,111.1 87.2,111.2 63.9,119.6 							"/>
							<polygon class="st64" points="63.9,119.3 87.2,110.9 87.2,111.1 63.9,119.5 							"/>
							<polygon class="st65" points="63.9,119.2 87.2,110.7 87.2,110.9 63.9,119.3 							"/>
							<polygon class="st66" points="63.9,119 87.2,110.6 87.2,110.7 63.9,119.2 							"/>
							<polygon class="st67" points="63.9,118.9 87.2,110.4 87.2,110.6 63.9,119 							"/>
							<polygon class="st68" points="63.9,118.7 87.2,110.3 87.2,110.4 63.9,118.9 							"/>
							<polygon class="st69" points="63.9,118.6 87.2,110.1 87.2,110.3 63.9,118.7 							"/>
							<polygon class="st70" points="63.9,118.4 87.2,110 87.2,110.1 63.9,118.6 							"/>
							<polygon class="st71" points="63.9,118.2 87.2,109.8 87.2,110 63.9,118.4 							"/>
							<polygon class="st72" points="63.9,118.1 87.2,109.7 87.2,109.8 63.9,118.2 							"/>
							<polygon class="st73" points="63.9,117.9 87.2,109.5 87.2,109.7 63.9,118.1 							"/>
							<polygon class="st74" points="63.9,117.8 87.2,109.3 87.2,109.5 63.9,117.9 							"/>
							<polygon class="st75" points="63.9,117.6 87.2,109.2 87.2,109.3 63.9,117.8 							"/>
							<polygon class="st76" points="63.9,117.5 87.2,109 87.2,109.2 63.9,117.6 							"/>
							<polygon class="st77" points="63.9,117.3 87.2,108.9 87.2,109 63.9,117.5 							"/>
							<polygon class="st78" points="63.9,117.2 87.2,108.7 87.2,108.9 63.9,117.3 							"/>
							<polygon class="st79" points="63.9,117 87.2,108.6 87.2,108.7 63.9,117.2 							"/>
							<polygon class="st80" points="63.9,116.9 87.2,108.4 87.2,108.6 63.9,117 							"/>
							<polygon class="st81" points="63.9,116.7 87.2,108.3 87.2,108.4 63.9,116.9 							"/>
							<polygon class="st82" points="63.9,116.6 87.2,108.1 87.2,108.3 63.9,116.7 							"/>
							<polygon class="st83" points="63.9,116.4 87.2,108 87.2,108.1 63.9,116.6 							"/>
							<polygon class="st84" points="63.9,116.2 87.2,107.8 87.2,108 63.9,116.4 							"/>
							<polygon class="st85" points="63.9,116.1 87.2,107.7 87.2,107.8 63.9,116.2 							"/>
							<polygon class="st86" points="63.9,115.9 87.2,107.5 87.2,107.7 63.9,116.1 							"/>
							<polygon class="st87" points="63.9,115.8 87.2,107.3 87.2,107.5 63.9,115.9 							"/>
							<polygon class="st88" points="63.9,115.6 87.2,107.2 87.2,107.3 63.9,115.8 							"/>
							<polygon points="63.9,115.5 87.2,107 87.2,107.2 63.9,115.6 							"/>
							<polygon class="st89" points="63.9,115.3 87.2,106.9 87.2,107 63.9,115.5 							"/>
							<polygon class="st90" points="63.9,115.2 87.2,106.7 87.2,106.9 63.9,115.3 							"/>
							<polygon class="st91" points="63.9,115 87.2,106.6 87.2,106.7 63.9,115.2 							"/>
							<polygon class="st92" points="63.9,114.8 87.2,106.4 87.2,106.6 63.9,115 							"/>
							<polygon class="st93" points="63.9,114.7 87.2,106.3 87.2,106.4 63.9,114.8 							"/>
							<polygon class="st94" points="63.9,114.5 87.2,106.1 87.2,106.3 63.9,114.7 							"/>
							<polygon class="st95" points="63.9,114.4 87.2,105.9 87.2,106.1 63.9,114.5 							"/>
							<polygon class="st96" points="63.9,114.2 87.2,105.8 87.2,105.9 63.9,114.4 							"/>
							<polygon class="st97" points="63.9,114.1 87.2,105.7 87.2,105.8 63.9,114.2 							"/>
							<polygon class="st98" points="63.9,113.9 87.2,105.5 87.2,105.7 63.9,114.1 							"/>
							<polygon class="st99" points="63.9,113.8 87.2,105.3 87.2,105.5 63.9,113.9 							"/>
							<polygon class="st100" points="63.9,113.6 87.2,105.2 87.2,105.3 63.9,113.8 							"/>
							<polygon class="st101" points="63.9,113.5 87.2,105 87.2,105.2 63.9,113.6 							"/>
							<polygon class="st102" points="63.9,113.3 87.2,104.9 87.2,105 63.9,113.5 							"/>
							<polygon points="63.9,113.2 87.2,104.7 87.2,104.9 63.9,113.3 							"/>
							<polygon class="st103" points="63.9,113 87.2,104.6 87.2,104.7 63.9,113.2 							"/>
							<polygon class="st104" points="63.9,112.8 87.2,104.4 87.2,104.6 63.9,113 							"/>
							<polygon class="st105" points="63.9,112.7 87.2,104.2 87.2,104.4 63.9,112.8 							"/>
							<polygon class="st106" points="63.9,112.5 87.2,104.1 87.2,104.2 63.9,112.7 							"/>
							<polygon class="st107" points="63.9,112.4 87.2,103.9 87.2,104.1 63.9,112.5 							"/>
							<polygon class="st108" points="63.9,112.2 87.2,103.8 87.2,103.9 63.9,112.4 							"/>
							<polygon class="st109" points="63.9,112.1 87.2,103.6 87.2,103.8 63.9,112.2 							"/>
							<polygon class="st110" points="63.9,111.9 87.2,103.5 87.2,103.6 63.9,112.1 							"/>
							<polygon class="st111" points="63.9,111.8 87.2,103.3 87.2,103.5 63.9,111.9 							"/>
							<polygon class="st112" points="63.9,111.6 87.2,103.2 87.2,103.3 63.9,111.8 							"/>
							<polygon class="st113" points="63.9,111.4 87.2,103 87.2,103.2 63.9,111.6 							"/>
							<polygon class="st114" points="63.9,111.3 87.2,102.9 87.2,103 63.9,111.4 							"/>
							<polygon class="st115" points="63.9,111.1 87.2,102.7 87.2,102.9 63.9,111.3 							"/>
							<polygon class="st116" points="63.9,111 87.2,102.6 87.2,102.7 63.9,111.1 							"/>
							<polygon class="st117" points="63.9,110.8 87.2,102.4 87.2,102.6 63.9,111 							"/>
							<polygon class="st118" points="63.9,110.7 87.2,102.2 87.2,102.4 63.9,110.8 							"/>
							<polygon class="st119" points="63.9,110.5 87.2,102.1 87.2,102.2 63.9,110.7 							"/>
							<polygon class="st120" points="63.9,110.4 87.2,101.9 87.2,102.1 63.9,110.5 							"/>
							<polygon class="st121" points="63.9,110.2 87.2,101.8 87.2,101.9 63.9,110.4 							"/>
							<polygon class="st122" points="63.9,110.1 87.2,101.6 87.2,101.8 63.9,110.2 							"/>
							<polygon class="st123" points="63.9,109.9 87.2,101.5 87.2,101.6 63.9,110.1 							"/>
							<polygon class="st124" points="63.9,109.8 87.2,101.3 87.2,101.5 63.9,109.9 							"/>
							<polygon class="st125" points="63.9,109.6 87.2,101.2 87.2,101.3 63.9,109.8 							"/>
							<polygon class="st126" points="63.9,109.4 87.2,101 87.2,101.2 63.9,109.6 							"/>
							<polygon class="st127" points="63.9,109.3 87.2,100.8 87.2,101 63.9,109.4 							"/>
							<polygon class="st128" points="63.9,109.1 87.2,100.7 87.2,100.8 63.9,109.3 							"/>
							<polygon class="st129" points="63.9,109 87.2,100.6 87.2,100.7 63.9,109.1 							"/>
							<polygon class="st130" points="63.9,108.8 87.2,100.4 87.2,100.6 63.9,109 							"/>
							<polygon class="st131" points="63.9,108.7 87.2,100.2 87.2,100.4 63.9,108.8 							"/>
							<polygon class="st132" points="63.9,108.5 87.2,100.1 87.2,100.2 63.9,108.7 							"/>
							<polygon class="st1" points="63.9,108.4 87.2,99.9 87.2,100.1 63.9,108.5 							"/>
							<polygon class="st1" points="87.2,99.9 63.9,108.4 63.9,84.3 87.2,84.3 							"/>
						</g>
					</g>
					<g>
						<defs>
							<path id="SVGID_00000099639167590951805920000000879003684564269443_" d="M125.1,108.2c-2.2,3.8-2.1,16.1-1.7,17.5
								c0.2,1,0.8,3.4,0.4,6.3c-0.2,1.1-0.4,2.9-1.5,4.6c-0.6,1-1.5,2-6.5,4.9c-4.1,2.4-6,3.1-7.6,5.3c-0.5,0.6-1.7,2.3-1.1,3.4
								c0.2,0.4,0.7,0.6,1.1,0.8c1.2,0.6,2.5,0.5,3.1,0.4c3.2-0.4,5.3-3.2,5.7-3c0.2,0.2-1.5,1.7-2.4,4.4c0,0-0.3,0.8-0.9,5.3l0,0
								c0,0,0.5,0.9,1.1,1.1c0.8,0.2,2-1.1,2.6-2.3c0.2-0.3,0.4-0.9,0.7-2.5c0.5-3.2,0.2-4.6,1.1-5.1c0.4-0.3,1.1-0.3,1.3,0
								c0.2,0.2,0.1,0.6-0.4,2.1c-0.3,0.8-0.4,1.1-0.4,1.3c-0.6,1.6-1.4,3.6-1.1,5.7c0.1,0.7,0.2,1.7,0.9,1.9c0.6,0.2,1.5-0.4,2-1.1
								c0.7-0.9,0.6-1.9,0.4-3.6c-0.4-5.4-0.1-6.2,0.4-6.6c0.4-0.3,1.1-0.3,1.3,0c0.3,0.3,0,0.9-0.2,1.9c-0.1,0.4-0.1,1.1-0.2,2.3
								c-0.1,1.6-0.2,2.3,0,3.4c0.2,1.1,0.3,2.2,1.1,2.5c0.6,0.3,1.3,0.1,1.7-0.2c2.5-1.6-0.6-9.8-0.2-9.9c0.3-0.1,2.6,6.3,2.6,6.3
								l0,0c0,0,1,0.7,1.7,0.6c0.8-0.1,1.4-1,1.5-1.3c0.4-0.7,0.8-2-0.6-6.6c-0.8-2.6-1.1-2.7-1.5-4.4c-0.5-2-0.5-3.6-0.4-5.1
								c0.1-4.6,0.8-7.3,1.3-11.6c0.6-5.4,0-4.5,0.6-10.3c0.7-6.3,1.6-8.7,0.2-9.7C129.7,106.1,126.3,106.2,125.1,108.2L125.1,108.2
								z"/>
						</defs>
						<clipPath id="SVGID_00000052071220960846039270000004615176570964432826_">
							<use xlink:href="#SVGID_00000099639167590951805920000000879003684564269443_"  style="overflow:visible;"/>
						</clipPath>
						<g style="clip-path:url(#SVGID_00000052071220960846039270000004615176570964432826_);">
							<polygon class="st56" points="106.5,132.5 106.5,132.3 132.4,135.4 132.4,160.6 106.5,160.6 							"/>
							<polygon class="st56" points="106.5,132.3 108.1,118.7 132.4,121.7 132.4,135.4 							"/>
							<polygon class="st56" points="108.1,118.7 108.2,118.6 132.4,121.6 132.4,121.7 							"/>
							<polygon class="st56" points="108.2,118.6 108.2,118.6 132.4,121.5 132.4,121.6 							"/>
							<polygon class="st56" points="108.2,118.6 108.2,118.5 132.4,121.4 132.4,121.5 							"/>
							<polygon class="st56" points="108.2,118.5 108.2,118.4 132.4,121.3 132.4,121.4 							"/>
							<polygon class="st56" points="108.2,118.4 108.2,118.3 132.4,121.3 132.4,121.3 							"/>
							<polygon class="st56" points="108.2,118.3 108.2,118.2 132.4,121.2 132.4,121.3 							"/>
							<polygon class="st57" points="108.2,118.2 108.2,118.2 132.4,121.1 132.4,121.2 							"/>
							<polygon class="st57" points="108.2,118.2 108.2,118.1 132.4,121 132.4,121.1 							"/>
							<polygon class="st57" points="108.2,118.1 108.2,118 132.4,120.9 132.4,121 							"/>
							<polygon class="st57" points="108.2,118 108.2,117.9 132.4,120.9 132.4,120.9 							"/>
							<polygon class="st134" points="108.2,117.9 108.2,117.9 132.4,120.8 132.4,120.9 							"/>
							<polygon class="st58" points="108.2,117.9 108.3,117.8 132.4,120.7 132.4,120.8 							"/>
							<polygon class="st58" points="108.3,117.8 108.3,117.7 132.4,120.6 132.4,120.7 							"/>
							<polygon class="st135" points="108.3,117.7 108.3,117.6 132.4,120.6 132.4,120.6 							"/>
							<polygon class="st59" points="108.3,117.6 108.3,117.6 132.4,120.5 132.4,120.6 							"/>
							<polygon class="st59" points="108.3,117.6 108.3,117.5 132.4,120.4 132.4,120.5 							"/>
							<polygon points="108.3,117.5 108.3,117.4 132.4,120.3 132.4,120.4 							"/>
							<polygon class="st60" points="108.3,117.4 108.3,117.3 132.4,120.2 132.4,120.3 							"/>
							<polygon class="st136" points="108.3,117.3 108.3,117.2 132.4,120.2 132.4,120.2 							"/>
							<polygon class="st61" points="108.3,117.2 108.3,117.2 132.4,120.1 132.4,120.2 							"/>
							<polygon class="st62" points="108.3,117.2 108.3,117.1 132.4,120 132.4,120.1 							"/>
							<polygon class="st137" points="108.3,117.1 108.3,117 132.4,119.9 132.4,120 							"/>
							<polygon points="108.3,117 108.4,116.9 132.4,119.9 132.4,119.9 							"/>
							<polygon class="st138" points="108.4,116.9 108.4,116.9 132.4,119.8 132.4,119.9 							"/>
							<polygon class="st139" points="108.4,116.9 108.4,116.8 132.4,119.7 132.4,119.8 							"/>
							<polygon class="st64" points="108.4,116.8 108.4,116.7 132.4,119.6 132.4,119.7 							"/>
							<polygon class="st65" points="108.4,116.7 108.4,116.6 132.4,119.5 132.4,119.6 							"/>
							<polygon class="st140" points="108.4,116.6 108.4,116.6 132.4,119.5 132.4,119.5 							"/>
							<polygon class="st66" points="108.4,116.6 108.4,116.5 132.4,119.4 132.4,119.5 							"/>
							<polygon class="st67" points="108.4,116.5 108.4,116.4 132.4,119.3 132.4,119.4 							"/>
							<polygon class="st141" points="108.4,116.4 108.4,116.3 132.4,119.2 132.4,119.3 							"/>
							<polygon class="st142" points="108.4,116.3 108.4,116.2 132.4,119.2 132.4,119.2 							"/>
							<polygon class="st143" points="108.4,116.2 108.4,116.2 132.4,119.1 132.4,119.2 							"/>
							<polygon class="st70" points="108.4,116.2 108.5,116.1 132.4,119 132.4,119.1 							"/>
							<polygon class="st71" points="108.5,116.1 108.5,116 132.4,118.9 132.4,119 							"/>
							<polygon class="st72" points="108.5,116 108.5,115.9 132.4,118.8 132.4,118.9 							"/>
							<polygon class="st73" points="108.5,115.9 108.5,115.9 132.4,118.8 132.4,118.8 							"/>
							<polygon class="st74" points="108.5,115.9 108.5,115.8 132.4,118.7 132.4,118.8 							"/>
							<polygon class="st75" points="108.5,115.8 108.5,115.7 132.4,118.6 132.4,118.7 							"/>
							<polygon class="st76" points="108.5,115.7 108.5,115.6 132.4,118.5 132.4,118.6 							"/>
							<polygon class="st77" points="108.5,115.6 108.5,115.6 132.4,118.4 132.4,118.5 							"/>
							<polygon class="st78" points="108.5,115.6 108.5,115.5 132.4,118.4 132.4,118.4 							"/>
							<polygon class="st79" points="108.5,115.5 108.5,115.4 132.4,118.3 132.4,118.4 							"/>
							<polygon class="st80" points="108.5,115.4 108.6,115.3 132.4,118.2 132.4,118.3 							"/>
							<polygon class="st81" points="108.6,115.3 108.6,115.2 132.4,118.1 132.4,118.2 							"/>
							<polygon class="st82" points="108.6,115.2 108.6,115.2 132.4,118.1 132.4,118.1 							"/>
							<polygon class="st83" points="108.6,115.2 108.6,115.1 132.4,118 132.4,118.1 							"/>
							<polygon class="st144" points="108.6,115.1 108.6,115 132.4,117.9 132.4,118 							"/>
							<polygon class="st145" points="108.6,115 108.6,114.9 132.4,117.8 132.4,117.9 							"/>
							<polygon class="st146" points="108.6,114.9 108.6,114.9 132.4,117.8 132.4,117.8 							"/>
							<polygon class="st147" points="108.6,114.9 108.6,114.8 132.4,117.7 132.4,117.8 							"/>
							<polygon class="st148" points="108.6,114.8 108.6,114.7 132.4,117.6 132.4,117.7 							"/>
							<polygon class="st90" points="108.6,114.7 108.6,114.6 132.4,117.5 132.4,117.6 							"/>
							<polygon class="st91" points="108.6,114.6 108.7,114.6 132.4,117.4 132.4,117.5 							"/>
							<polygon class="st149" points="108.7,114.6 108.7,114.5 132.4,117.4 132.4,117.4 							"/>
							<polygon class="st150" points="108.7,114.5 108.7,114.4 132.4,117.3 132.4,117.4 							"/>
							<polygon class="st95" points="108.7,114.4 108.7,114.3 132.4,117.2 132.4,117.3 							"/>
							<polygon class="st151" points="108.7,114.3 108.7,114.2 132.4,117.1 132.4,117.2 							"/>
							<polygon class="st98" points="108.7,114.2 108.7,114.2 132.4,117 132.4,117.1 							"/>
							<polygon class="st152" points="108.7,114.2 108.7,114.1 132.4,117 132.4,117 							"/>
							<polygon class="st101" points="108.7,114.1 108.7,114 132.4,116.9 132.4,117 							"/>
							<polygon class="st102" points="108.7,114 108.7,113.9 132.4,116.8 132.4,116.9 							"/>
							<polygon class="st153" points="108.7,113.9 108.7,113.9 132.4,116.7 132.4,116.8 							"/>
							<polygon class="st104" points="108.7,113.9 108.7,113.8 132.4,116.7 132.4,116.7 							"/>
							<polygon points="108.7,113.8 108.8,113.7 132.4,116.6 132.4,116.7 							"/>
							<polygon class="st154" points="108.8,113.7 108.8,113.6 132.4,116.5 132.4,116.6 							"/>
							<polygon class="st155" points="108.8,113.6 108.8,113.6 132.4,116.4 132.4,116.5 							"/>
							<polygon class="st110" points="108.8,113.6 108.8,113.5 132.4,116.3 132.4,116.4 							"/>
							<polygon class="st156" points="108.8,113.5 108.8,113.4 132.4,116.3 132.4,116.3 							"/>
							<polygon class="st157" points="108.8,113.4 108.8,113.3 132.4,116.2 132.4,116.3 							"/>
							<polygon class="st115" points="108.8,113.3 108.8,113.2 132.4,116.1 132.4,116.2 							"/>
							<polygon class="st117" points="108.8,113.2 108.8,113.2 132.4,116 132.4,116.1 							"/>
							<polygon class="st158" points="108.8,113.2 108.8,113.1 132.4,115.9 132.4,116 							"/>
							<polygon class="st159" points="108.8,113.1 108.8,113 132.4,115.9 132.4,115.9 							"/>
							<polygon class="st122" points="108.8,113 108.8,112.9 132.4,115.8 132.4,115.9 							"/>
							<polygon class="st160" points="108.8,112.9 108.8,112.9 132.4,115.7 132.4,115.8 							"/>
							<polygon class="st161" points="108.8,112.9 108.9,112.8 132.4,115.6 132.4,115.7 							"/>
							<polygon class="st162" points="108.9,112.8 108.9,112.7 132.4,115.6 132.4,115.6 							"/>
							<polygon class="st163" points="108.9,112.7 108.9,112.6 132.4,115.5 132.4,115.6 							"/>
							<polygon class="st131" points="108.9,112.6 108.9,112.6 132.4,115.4 132.4,115.5 							"/>
							<polygon class="st1" points="108.9,112.6 108.9,112.5 132.4,115.3 132.4,115.4 							"/>
							<polygon class="st1" points="108.9,112.5 109.7,106.1 132.4,106.1 132.4,115.3 							"/>
						</g>
					</g>
				</g>
			</g>
			<path class="st164" d="M60.2,164c-1.3,0.8-1.9,2-2.6,3.6c-0.7,1.5-0.9,2.7-1.3,5.3c-0.5,3-0.2,3.3,0,3.4c0.5,0.3,1.6-0.7,2.6-1.5
				c2.7-2.2,3.1-1.6,6.8-4c1.4-1,1.6-1.2,2.4-1.5c1.7-0.6,2.7-0.2,3.5-1.1c0.4-0.5,0.6-1.1,0.4-1.7s-0.7-1.3-3.3-2.1
				C65.3,163.4,62.5,162.6,60.2,164L60.2,164z"/>
			<path class="st164" d="M69.1,168.3c1.2-0.4,2.2-0.3,3.1-0.2c1.8,0.1,3.2,0.7,3.5,0.9c2.6,1.1,5.3,3.7,4.8,5.1
				c-0.3,0.7-1.1,0.4-3.5,1.5c-1.9,0.8-1.9,1.3-3.7,2.1c-2.4,1.1-2.7,0.6-4.6,1.5c-3.1,1.5-3.7,3.9-4.8,3.6c-1-0.3-1.2-2.6-1.3-3.6
				c0-0.4-0.2-2.2,0.7-4.4c0.1-0.4,0.8-2.1,2.4-3.8C66.6,169.8,67.5,168.8,69.1,168.3L69.1,168.3z"/>
		</g>
		<path class="st164" d="M104.2,178.1c0.4-1.7,3.6-2.6,5.1-2.9c1.4-0.4,3.4-0.9,5.8-0.3c0.3,0.1,3,0.8,3,1.9c0,0.5-0.5,0.8-1.2,1.5
			c-0.7,0.6-1.3,1.5-2.6,3.4c-2.4,3.5-1.8,5-3.2,5.4c-1.8,0.5-4.1-1.5-4.4-1.9c-0.4-0.4-1.1-1-1.6-2.1c-0.4-0.9-0.2-1.3-0.6-3.5
			C104.2,178.4,104.2,178.4,104.2,178.1L104.2,178.1z"/>
		<path class="st164" d="M117.2,177.8c0.6-0.9,1.5-1.3,2.6-1.7c0.3-0.1,1.4-0.5,3.1-0.6c1.4-0.1,4-0.3,4.6,0.8
			c0.1,0.2,0.2,0.5-0.4,2.1c-0.6,1.5-1.1,2.6-1.7,3.8c-1,2-1.5,2.7-2.2,3.4c-0.9,0.9-1.4,1-1.7,1.1c-0.9,0-1.5-0.6-2.2-1.3
			c-1.6-1.7-2.1-3.6-2.2-4.2C116.7,179.9,116.5,178.8,117.2,177.8L117.2,177.8z"/>
	</g>
	<g>
		<path class="st3" d="M86.8,54.3c-0.6,0-2.5,0.3-3.7,1.7c-0.3,0.3-1,1.1-0.9,2.1c0.1,0.5,0.3,0.8,0.9,1.5c0.7,0.8,1.4,1.3,1.7,1.5
			s0.8,0.4,1.5,0.6c1.2,0.3,2.3,0.2,3.7,0c1.2-0.2,2-0.4,2.8-0.6c1.3-0.4,2-0.6,2.6-1.1c0.4-0.3,1.2-0.9,1.3-1.9
			c0.2-1.2-0.6-2.3-1.5-2.8c-0.8-0.4-1.3-0.1-2.4,0C90,55.6,89.5,54.1,86.8,54.3L86.8,54.3z"/>
		<g>
			<path class="st165" d="M76.8,42.1c1.4-0.4,2.7,0.3,3.5,0.6c1.4,0.7,2.1,1.7,2.6,2.3c1.1,1.5,1.4,2.8,1.7,4.2
				c0.4,1.7,0.6,2.5,0.2,3.2c-0.5,0.7-1.1,0.5-4.1,1.7c-1.2,0.5-2.6,1-2.6,1.1c-1.8,0.8-2,0.9-2.6,1.1c-0.5,0.1-2.4,0.5-3.5-0.6
				c-0.8-0.8-0.7-1.9-0.7-2.8c0.1-1.4,0.6-1.8,1.3-3.8c0.9-2.5,0.5-2.8,1.3-4.2C74.5,43.9,75.3,42.5,76.8,42.1L76.8,42.1z"/>
			<path d="M74.2,56.9c-1.3,0-2.1-0.5-2.6-0.9c-0.9-0.9-0.8-2.3-0.8-3.1c0.1-1,0.3-1.5,0.7-2.3c0.2-0.4,0.4-0.9,0.7-1.6
				c0.4-1.1,0.6-1.8,0.7-2.3c0.1-0.6,0.2-1.1,0.7-2c0.6-1,1.4-2.5,3.1-3l0,0c1.6-0.5,3.1,0.3,3.8,0.7c1.5,0.8,2.3,1.8,2.8,2.5
				c1.2,1.5,1.5,3,1.8,4.4c0.4,1.8,0.7,2.8,0.2,3.5c-0.4,0.6-0.9,0.8-1.8,1c-0.6,0.2-1.4,0.4-2.6,0.9c-1.2,0.5-2.6,1-2.6,1
				c-0.6,0.3-1.1,0.5-1.4,0.6c-0.6,0.3-0.8,0.4-1.3,0.5C75.1,56.8,74.7,56.9,74.2,56.9z M76.9,42.6L76.9,42.6
				c-1.3,0.4-2,1.6-2.5,2.5c-0.4,0.7-0.5,1.1-0.6,1.7c-0.1,0.6-0.2,1.3-0.7,2.5c-0.3,0.7-0.5,1.3-0.7,1.7c-0.3,0.8-0.5,1.2-0.6,2
				c-0.1,0.8-0.1,1.7,0.5,2.4c0.4,0.4,1.2,0.8,3,0.5c0.4-0.1,0.5-0.1,1.1-0.4c0.3-0.2,0.8-0.3,1.4-0.6c0,0,1.4-0.6,2.6-1.1
				c1.2-0.5,2-0.7,2.6-0.9c0.9-0.3,1.1-0.3,1.3-0.6c0.3-0.4,0.1-1.3-0.3-2.8c-0.3-1.4-0.6-2.7-1.7-4c-0.4-0.6-1.1-1.5-2.4-2.2
				C79.4,42.8,78.2,42.2,76.9,42.6L76.9,42.6z"/>
		</g>
		<path class="st166" d="M82.9,45c-0.9-1.4-3.5-0.1-4.8,1.1c-0.2,0.2-1.4,1.3-1.5,3.2c-0.1,1.7,0.9,3.6,2.8,4.7
			c1.1,0.6,1.6,0.4,5-1.1C86.5,51.9,84.2,46.9,82.9,45L82.9,45z"/>
		<g>
			<path class="st167" d="M79.7,64.9c0.2-0.2,0.9,0.8,2.6,1.5c1.1,0.5,2,0.5,3.7,0.6c1.5,0.1,2.9,0.2,4.6-0.2
				c1.1-0.3,1.2-0.5,2.4-0.8c2.4-0.8,3.2-0.3,6.3-0.8c2.7-0.4,4.1-0.7,5.2-1.7c1.7-1.6,1.7-3.8,2.4-3.8c0.4,0,0.8,1,0.9,1.9
				c0.1,2.5-2.5,4.4-3.1,4.9c-1,0.8-2.4,1.2-5.2,2.1c-2.5,0.8-3.8,1.2-5.4,1.5c-2.8,0.4-4.9,0.3-6.1,0.2c-2.6-0.2-3.9-0.3-5.2-1.1
				C80.4,67.7,79.3,65.2,79.7,64.9L79.7,64.9z"/>
			<path d="M90.2,71.3c-1,0-1.8-0.1-2.3-0.1c-2.7-0.2-4.2-0.3-5.7-1.2c-2.2-1.3-3.5-3.7-3.6-4.8c0-0.6,0.2-0.9,0.4-1.1
				c0.7-0.6,1.4,0,1.8,0.3s1,0.7,1.8,1.1c1,0.4,1.8,0.4,3.4,0.6c1.4,0.1,2.7,0.2,4.3-0.2c0.6-0.1,0.8-0.2,1.2-0.4
				c0.3-0.1,0.6-0.3,1.1-0.4c1.6-0.5,2.5-0.6,3.6-0.6c0.8,0,1.6-0.1,2.8-0.3c2.6-0.4,3.8-0.6,4.7-1.4c0.8-0.7,1.1-1.6,1.4-2.4
				c0.3-0.8,0.7-1.8,1.7-1.7c1.3,0.1,1.7,1.9,1.8,2.8c0.1,1.4-0.4,3.5-3.4,5.7c-1.2,0.9-2.7,1.4-5.5,2.3c-2.6,0.8-3.9,1.2-5.6,1.5
				C92.6,71.2,91.3,71.3,90.2,71.3L90.2,71.3z M82.1,67.4c0.3,0.3,0.7,0.6,1.1,0.9c1.1,0.7,2.2,0.7,4.8,0.9c1.1,0.1,3.2,0.2,5.9-0.2
				c1.6-0.2,2.8-0.7,5.3-1.4c2.8-0.9,4.1-1.3,4.9-2c1.7-1.2,2.6-2.5,2.6-3.7c-0.3,0.7-0.8,1.6-1.6,2.3c-1.3,1.2-2.9,1.5-5.7,1.9
				c-1.3,0.2-2.2,0.3-3.1,0.3c-1.1,0.1-1.8,0.1-3.1,0.5c-0.4,0.2-0.7,0.3-1,0.4c-0.4,0.2-0.8,0.3-1.5,0.5c-1.9,0.4-3.5,0.3-4.9,0.2
				C84.3,67.9,83.3,67.8,82.1,67.4L82.1,67.4z"/>
		</g>
		<path d="M104.7,47.9c0.4,0,0.4-0.6,0-0.6S104.3,47.9,104.7,47.9L104.7,47.9z"/>
		<path d="M80.4,41.4c0.8-0.3,1.7-0.2,2.5,0.2s1.2,1.1,1.6,1.9c0.2,0.4,0.8,0,0.6-0.3c-0.4-0.8-1.1-1.6-1.9-2.1s-2-0.7-2.9-0.3
			c-0.2,0.1-0.3,0.2-0.2,0.4C80,41.3,80.2,41.4,80.4,41.4L80.4,41.4L80.4,41.4z"/>
		<path d="M94,36.3c-1.4,1.3-0.9,3.5,0.3,4.8c1.5,1.7,4,1.9,6.1,2.1c4.7,0.4,10,1.1,13.2,4.9c1.3,1.5,2.2,3.9,4.4,4.3
			c0.4,0.1,0.6-0.5,0.2-0.6c-1.8-0.3-2.7-2.2-3.7-3.6c-1.2-1.7-3-2.9-4.9-3.8c-2.2-1-4.6-1.4-7-1.6c-1.2-0.1-2.3-0.2-3.5-0.3
			c-1.1-0.1-2.2-0.4-3.1-0.9c-0.9-0.5-1.6-1.3-1.8-2.2c-0.3-0.9-0.2-1.8,0.5-2.5C94.7,36.5,94.3,36,94,36.3L94,36.3L94,36.3z"/>
		<path d="M88.2,59h-2.3c-0.2,0-0.3,0.1-0.4,0.3c-0.1,0.2-0.1,0.4-0.1,0.7c0.1,0.4,0.5,0.8,0.9,1c0.4,0.2,1,0.1,1.4-0.2
			c0.5-0.3,0.8-0.7,1.1-1.2c0.2-0.4-0.4-0.7-0.6-0.3c-0.3,0.5-0.8,1.2-1.4,1.2c0,0-0.1,0-0.1,0c0,0-0.1,0-0.1,0
			c-0.1,0-0.1,0-0.2-0.1c0,0-0.1,0-0.1,0c0,0-0.1-0.1,0,0c-0.1,0-0.1-0.1-0.2-0.2c0,0,0,0,0,0c0,0-0.1-0.1-0.1-0.1c0,0,0,0,0,0
			c0,0,0-0.1,0-0.1c0,0,0,0,0,0c0,0,0,0,0,0c0,0,0-0.1,0,0c0,0,0-0.1,0-0.1c0,0,0-0.1,0-0.1l-0.3,0.2h2.4C88.6,59.6,88.6,59,88.2,59
			L88.2,59L88.2,59z"/>
		<path d="M93.1,58.7h-1.5c-0.4,0-0.9-0.1-1.2,0.2c-0.2,0.2-0.2,0.4-0.2,0.6c0.1,0.2,0.2,0.3,0.4,0.5c0.4,0.2,0.8,0.2,1.2,0.1
			c0.5-0.1,1-0.2,1.4-0.5c0.3-0.2,0.2-0.6-0.2-0.6H91c-0.4,0-0.4,0.7,0,0.6H93L92.8,59c-0.4,0.2-0.8,0.4-1.2,0.5c-0.1,0-0.2,0-0.3,0
			c-0.1,0-0.2,0-0.2,0c-0.1,0-0.1,0-0.2-0.1c0,0,0,0-0.1,0c0,0,0,0,0,0c0,0,0,0,0,0c0,0,0,0,0,0c0,0,0,0,0,0c0,0,0,0,0,0
			c0,0,0,0,0,0c0,0,0,0,0,0c0,0,0,0,0,0c0,0,0,0,0,0c0,0,0,0,0,0c0,0,0,0,0.1,0c0,0,0,0,0.1,0c0,0,0,0,0,0c0.1,0,0.1,0,0.1,0
			c0.1,0,0.3,0,0.4,0h1.6C93.5,59.3,93.5,58.7,93.1,58.7L93.1,58.7L93.1,58.7z"/>
		<path d="M88,59.3l-1.9,0c-0.2,0-0.3,0.1-0.3,0.3c0,0.4,0.4,0.8,0.8,0.9c0.5,0.1,0.9-0.1,1.3-0.3c0.3-0.2,0.2-0.6-0.2-0.6h-0.8
			c-0.2,0-0.3,0.2-0.3,0.3s0.1,0.3,0.3,0.3h0.8l-0.2-0.6c-0.2,0.1-0.3,0.2-0.4,0.2c-0.1,0-0.2,0-0.3,0.1c0.1,0-0.1,0-0.1,0
			c0,0-0.1,0-0.1,0s-0.1,0-0.1,0c0,0-0.1,0-0.1,0c0,0-0.1,0-0.1,0c0,0,0,0,0,0c0,0,0,0,0,0c0,0,0,0-0.1-0.1c0.1,0.1,0,0,0,0
			c0,0,0,0,0,0c0,0,0,0,0,0c0,0,0,0,0,0c0,0,0,0,0,0L86.1,60l1.9,0c0.2,0,0.3-0.1,0.3-0.3S88.2,59.3,88,59.3L88,59.3L88,59.3z"/>
		<path d="M82.4,64.1c-1.2-0.2-2.5,0.2-3.4,1.1s-1.2,2.2-0.8,3.3c0.1,0.4,0.7,0.2,0.6-0.2c-0.3-0.9,0-2,0.7-2.7s1.8-1.1,2.8-0.9
			C82.7,64.8,82.9,64.2,82.4,64.1L82.4,64.1z"/>
		<path d="M104.3,59.8c1.1,0.1,2.1-0.2,3.2,0c0.8,0.1,1.6,0.4,2,1.1c0.2,0.3,0.8,0,0.6-0.3c-0.5-0.8-1.4-1.2-2.3-1.3
			c-1.2-0.2-2.3,0.1-3.5,0C103.9,59.1,103.9,59.8,104.3,59.8L104.3,59.8L104.3,59.8z"/>
		<g>
			<g>
				<path class="st165" d="M95.3,42.1c-0.3,0.5-0.8,1.3-0.9,2.3c-0.1,0.9,0.2,1.4,0.7,3c0.8,2.7,0.4,2.7,0.9,3.4
					c1.3,1.9,4.5,1.9,5.7,1.9c2.3,0,2.8-0.6,5.2-1.1c5.1-0.9,8,1.1,8.7,0c0.7-1.1-1.7-4-4.1-5.7c-1.6-1.1-3-1.6-4.1-1.9
					C104.7,43.2,100.7,42.3,95.3,42.1z"/>
				<path d="M101.7,53.1L101.7,53.1c-1.3,0-4.7,0-6.1-2.1c-0.3-0.4-0.3-0.7-0.4-1.1c-0.1-0.4-0.2-1.1-0.6-2.5
					c-0.1-0.3-0.2-0.6-0.3-0.9c-0.3-0.9-0.5-1.4-0.4-2.2c0.1-0.9,0.4-1.8,1-2.6l0.2-0.2h0.3c4.3,0.2,8.4,0.8,12.1,1.9
					c1.3,0.4,2.7,0.9,4.3,2c2.4,1.7,5.2,4.8,4.3,6.4c-0.5,0.8-1.5,0.6-2.8,0.4c-1.5-0.3-3.5-0.6-6.2-0.2c-0.9,0.2-1.6,0.4-2.2,0.5
					C103.8,52.9,103.1,53.2,101.7,53.1L101.7,53.1z M95.6,42.6c-0.4,0.6-0.6,1.2-0.6,1.8c0,0.6,0.1,1,0.3,1.9
					c0.1,0.3,0.2,0.6,0.3,0.9c0.4,1.5,0.5,2.2,0.6,2.6c0.1,0.4,0.1,0.4,0.2,0.7c1.2,1.7,4.2,1.7,5.2,1.7c1.3,0,2-0.2,2.8-0.5
					c0.6-0.2,1.3-0.4,2.3-0.6c2.9-0.5,5.1-0.1,6.6,0.2c0.8,0.2,1.6,0.3,1.8,0.1c0.4-0.6-1.3-3.2-4-5c-1.4-1-2.8-1.5-4-1.8
					C103.6,43.4,99.7,42.8,95.6,42.6L95.6,42.6z"/>
			</g>
			<g>
				<path class="st166" d="M95.3,42.5c0-0.4,0,2,1.4,4.5c0.4,0.7,1.2,1.6,2.4,2.1c0.7,0.3,1.9,0.2,4.4,0c1.6-0.1,1.9-0.2,2.2-0.4
					c1-0.7,1.5-2.1,1.4-2.8C106.5,42.9,94.8,41.4,95.3,42.5L95.3,42.5z"/>
				<path d="M100.4,49.8c-0.6,0-1.1-0.1-1.4-0.2c-1.4-0.5-2.2-1.6-2.7-2.3c-1-1.8-1.4-3.6-1.5-4.6c-0.1-0.1-0.1-0.2,0-0.4V42l0.2,0
					c0.9-1,6.7,0.3,6.8,0.3c2.5,0.6,5.5,1.6,5.9,3.3c0.2,1-0.4,2.6-1.6,3.4c-0.5,0.3-0.9,0.4-2.5,0.5
					C102.2,49.7,101.2,49.8,100.4,49.8L100.4,49.8z M95.8,42.7c0.1,0.9,0.4,2.5,1.3,4c0.4,0.6,1,1.5,2.2,1.9
					c0.6,0.2,1.9,0.1,4.2-0.1c1.5-0.1,1.8-0.2,2-0.4c0.9-0.6,1.3-1.8,1.1-2.3c-0.1-0.4-0.6-0.9-1.6-1.4
					C102.2,43.1,97.1,42.5,95.8,42.7L95.8,42.7z"/>
			</g>
		</g>
		<g>
			<path d="M79,48c0.4-0.3,1.5-0.5,2.4-0.4c0.8,0,1.7,0.3,2.8,0.8c0.6,0.3,1,3.1,0.2,3.6c-0.8,0.6-1.4,1-2.4,1.1
				c-0.4,0-1.8,0-2.6-1.1C78.6,50.9,78.1,48.6,79,48z"/>
			<path d="M81.8,53.6c-0.6,0-2-0.1-2.8-1.3c-0.7-0.9-1.1-2.5-0.9-3.6c0.1-0.5,0.3-0.9,0.6-1.1l0,0c0.5-0.4,1.8-0.5,2.7-0.5
				c0.9,0,2,0.3,3,0.9c0.7,0.4,0.9,2,0.9,2.2c0,0.6,0,1.7-0.6,2.2c-0.8,0.6-1.5,1.1-2.6,1.2C81.9,53.6,81.9,53.6,81.8,53.6
				L81.8,53.6z M79.3,48.4c-0.1,0.1-0.2,0.2-0.2,0.5c-0.1,0.8,0.2,2.1,0.8,2.8c0.6,0.8,1.8,0.9,2.2,0.8c0.8,0,1.3-0.4,2.1-1
				c0.1,0,0.2-0.2,0.2-0.8c0.1-0.9-0.2-1.8-0.4-2c-0.9-0.5-1.8-0.8-2.6-0.8C80.4,48,79.5,48.2,79.3,48.4L79.3,48.4L79.3,48.4z"/>
		</g>
		<g>
			<path d="M96.2,42.7c0,0.5,0,0.7,0.2,1.5c0.2,0.7,0.4,1.5,1,2.2c0.3,0.3,0.8,1.1,1.9,1.5c0.2,0.1,2.1,0.7,3.3-0.4
				c0.7-0.7,0.8-1.7,0.8-2.2c0-0.2,0-0.8-0.2-1.3C102.2,41.8,96.1,41.7,96.2,42.7L96.2,42.7z"/>
			<path d="M100.7,48.6c-0.7,0-1.4-0.2-1.7-0.3c-1.2-0.4-1.9-1.3-2.2-1.6c-0.6-0.8-0.8-1.6-1.1-2.4c-0.2-0.7-0.2-1-0.2-1.4v-0.2
				c0-0.3,0.2-0.8,1.1-1c1.6-0.3,5.9,0,6.8,2c0.2,0.4,0.2,0.9,0.2,1.5c0,0.5,0,1.7-0.9,2.6C102.2,48.4,101.4,48.6,100.7,48.6z
				 M96.7,42.8L96.7,42.8c0,0.4,0,0.6,0.2,1.2c0.2,0.7,0.4,1.4,0.9,2c0.2,0.3,0.8,1,1.7,1.3c0.4,0.2,1.9,0.6,2.8-0.3
				c0.6-0.5,0.6-1.4,0.6-1.8c0-0.5,0-0.8-0.2-1.1c-0.2-0.5-1-1-2.2-1.3C98.8,42.5,97.1,42.6,96.7,42.8L96.7,42.8z M96.7,42.7
				L96.7,42.7z"/>
		</g>
	</g>
</g>
<g>
	<path class="st165" d="M85,69.9c0.8,0,0.8-1.3,0-1.3S84.1,69.9,85,69.9L85,69.9z"/>
	<path class="st165" d="M86.4,70.1c0.8,0,0.8-1.3,0-1.3S85.6,70.1,86.4,70.1L86.4,70.1z"/>
	<path class="st165" d="M87.9,70.2c0.8,0,0.8-1.3,0-1.3S87.1,70.2,87.9,70.2L87.9,70.2z"/>
	<path class="st165" d="M89.2,70.3c0.8,0,0.8-1.3,0-1.3S88.3,70.3,89.2,70.3L89.2,70.3z"/>
	<path class="st165" d="M90.4,70.3c0.8,0,0.8-1.3,0-1.3S89.6,70.3,90.4,70.3L90.4,70.3z"/>
	<path class="st165" d="M91.9,70c0.8,0,0.8-1.3,0-1.3S91,70,91.9,70L91.9,70z"/>
	<path class="st165" d="M93.2,69.9c0.8,0,0.8-1.3,0-1.3S92.4,69.9,93.2,69.9L93.2,69.9z"/>
	<path class="st165" d="M94.5,69.8c0.8,0,0.8-1.3,0-1.3S93.7,69.8,94.5,69.8L94.5,69.8z"/>
	<path class="st165" d="M96,69.4c0.8,0,0.8-1.3,0-1.3S95.2,69.4,96,69.4L96,69.4z"/>
	<path class="st165" d="M97.1,69c0.8,0,0.8-1.3,0-1.3S96.3,69,97.1,69L97.1,69z"/>
	<path class="st165" d="M98.3,68.7c0.8,0,0.8-1.3,0-1.3S97.5,68.7,98.3,68.7L98.3,68.7z"/>
	<path class="st165" d="M99.8,68.2c0.8,0,0.8-1.3,0-1.3S98.9,68.2,99.8,68.2L99.8,68.2z"/>
	<path class="st165" d="M101.3,67.8c0.8,0,0.8-1.3,0-1.3S100.4,67.8,101.3,67.8L101.3,67.8z"/>
</g>
<path class="st165" d="M91.2,69.9c0.4,0,0.4-0.6,0-0.6S90.8,69.9,91.2,69.9L91.2,69.9z"/>
<path class="st165" d="M93.9,69.8c0.4,0,0.4-0.6,0-0.6S93.4,69.8,93.9,69.8L93.9,69.8z"/>
<path class="st165" d="M91.3,70.1c0.4,0,0.4-0.6,0-0.6S90.8,70.1,91.3,70.1L91.3,70.1z"/>
<path class="st165" d="M89.7,70.1c0.4,0,0.4-0.6,0-0.6S89.3,70.1,89.7,70.1L89.7,70.1z"/>
<path class="st165" d="M88.4,70c0.4,0,0.4-0.6,0-0.6S88,70,88.4,70L88.4,70z"/>
<path class="st165" d="M87.1,69.9c0.4,0,0.4-0.6,0-0.6S86.6,69.9,87.1,69.9L87.1,69.9z"/>
<path class="st165" d="M87.2,69.9c0.4,0,0.4-0.6,0-0.6S86.8,69.9,87.2,69.9L87.2,69.9z"/>
<path class="st165" d="M85.5,69.7c0.4,0,0.4-0.6,0-0.6S85.1,69.7,85.5,69.7L85.5,69.7z"/>
<path class="st165" d="M85.7,69.9c0.4,0,0.4-0.6,0-0.6S85.2,69.9,85.7,69.9L85.7,69.9z"/>
<path class="st165" d="M84.2,69.5c0.4,0,0.4-0.6,0-0.6S83.8,69.5,84.2,69.5L84.2,69.5z"/>
<path class="st165" d="M92.6,69.9c0.4,0,0.4-0.6,0-0.6S92.1,69.9,92.6,69.9L92.6,69.9z"/>
<path class="st165" d="M92.9,69.9c0.4,0,0.4-0.6,0-0.6S92.5,69.9,92.9,69.9L92.9,69.9z"/>
<path class="st165" d="M92.6,69.9c0.4,0,0.4-0.6,0-0.6S92.1,69.9,92.6,69.9L92.6,69.9z"/>
<path class="st165" d="M91.6,70.1c0.4,0,0.4-0.6,0-0.6S91.2,70.1,91.6,70.1L91.6,70.1z"/>
<path class="st165" d="M92.5,69.9c0.4,0,0.4-0.6,0-0.6S92.1,69.9,92.5,69.9L92.5,69.9z"/>
<path class="st165" d="M95.2,69.6c0.4,0,0.4-0.6,0-0.6S94.8,69.6,95.2,69.6L95.2,69.6z"/>
<path class="st165" d="M95.6,69.5c0.4,0,0.4-0.6,0-0.6S95.1,69.5,95.6,69.5L95.6,69.5z"/>
<path class="st165" d="M95.2,69.2c0.4,0,0.4-0.6,0-0.6S94.8,69.2,95.2,69.2L95.2,69.2z"/>
<path class="st165" d="M96.6,69.1c0.4,0,0.4-0.6,0-0.6S96.2,69.1,96.6,69.1L96.6,69.1z"/>
<path class="st165" d="M96.8,69.2c0.4,0,0.4-0.6,0-0.6S96.4,69.2,96.8,69.2L96.8,69.2z"/>
<path class="st165" d="M96.5,69.2c0.4,0,0.4-0.6,0-0.6S96.1,69.2,96.5,69.2L96.5,69.2z"/>
<path class="st165" d="M97.8,68.8c0.4,0,0.4-0.6,0-0.6S97.3,68.8,97.8,68.8L97.8,68.8z"/>
<path class="st165" d="M97.5,69c0.4,0,0.4-0.6,0-0.6S97,69,97.5,69L97.5,69z"/>
<path class="st165" d="M97.7,68.5c0.4,0,0.4-0.6,0-0.6S97.3,68.5,97.7,68.5L97.7,68.5z"/>
<path class="st165" d="M99.1,68c0.4,0,0.4-0.6,0-0.6S98.7,68,99.1,68L99.1,68z"/>
<path class="st165" d="M99,68.5c0.4,0,0.4-0.6,0-0.6S98.6,68.5,99,68.5L99,68.5z"/>
<path class="st165" d="M99.4,68.3c0.4,0,0.4-0.6,0-0.6S99,68.3,99.4,68.3L99.4,68.3z"/>
<path class="st165" d="M100.2,67.8c0.4,0,0.4-0.6,0-0.6S99.8,67.8,100.2,67.8L100.2,67.8z"/>
<path class="st165" d="M100.2,68c0.4,0,0.4-0.6,0-0.6S99.8,68,100.2,68L100.2,68z"/>
<path class="st165" d="M100.8,67.9c0.4,0,0.4-0.6,0-0.6S100.3,67.9,100.8,67.9L100.8,67.9z"/>
<path class="st165" d="M100.5,67.6c0.4,0,0.4-0.6,0-0.6S100.1,67.6,100.5,67.6L100.5,67.6z"/>
<path class="st165" d="M100.4,68c0.4,0,0.4-0.6,0-0.6S100,68,100.4,68L100.4,68z"/>
<path class="st165" d="M102,67.5c0.4,0,0.4-0.6,0-0.6S101.5,67.5,102,67.5L102,67.5z"/>
<g>
	<g>
		<g>
			<g>
				<path class="st0" d="M355.2,132.6c-1.3,1.9-0.5,2.9-2.4,6.8c-1.2,2.3-1.8,2.7-2,4.2c-0.1,1.6,0.2,3.8,0.4,4.9
					c0.2,1.2,0.4,1.8,0,2.5c-0.4,0.8-1.2,0.9-2.2,1.5c-1.4,0.8-2.1,1.8-3.3,3.4c-1.3,1.8-1.8,3.3-2.4,5.1c-0.3,0.9-0.6,1.9-0.2,2.1
					c0.4,0.2,1.3-0.6,1.5-0.4c0.2,0.2-0.8,1.2-1.1,2.5c-0.5,1.9,0.7,3.7,1.3,4.6c0.6,0.9,2,3.2,3.7,3c0.8-0.1,1.4-0.7,2.2-1.7
					c0.9-1,1.1-1.6,1.7-2.8c0.3-0.6,2.5-4.1,3.7-3.8c0.5,0.1,0.7,0.9,0.9,1.5c0.3,1.2-0.2,1.6,0,2.5c0.4,1.9,2.9,3.2,3.2,3.4l0,0
					c0.8,0.4,1.8-0.3,2-0.4c0.8-0.5,1-1.3,1.5-2.5c0.1-0.2,0.9-2.1,2-3.8c1.2-2,2.2-2.6,2-3.4c-0.2-0.5-1-0.3-1.5-0.8
					c-0.7-0.8-0.2-2.1,0-3c0.8-3.6-2.5-5.2-2.2-9.1c0.1-1.8,0.9-2.3,1.7-4.2c2.5-5.5,2.3-14-1.3-15.8
					C361.9,127.5,357.1,129.6,355.2,132.6L355.2,132.6z"/>
				<path class="st0" d="M318.9,116.6c-0.5,1-2.2,2.6-2.9,4.5c-1.5,3.9-1.3,4.7-2.6,8.9c-2.2,7.1-3.5,6.9-3.7,10.6
					c-0.1,1.9,0.2,3.3-0.9,4.4c-1.2,1.3-2.7,0.6-5,1.9c-1.1,0.6-2,1.6-3.7,3.6c-2,2.4-3.2,3.8-3.9,5.9c-0.5,1.5-1.2,4.6,0,5.3
					c1.1,0.7,3.6-1.3,5.2-2.5c1.3-1,1.5-1.4,3.5-3c1.2-1,2.2-1.6,3.5-1.9c1.1-0.3,2.3-0.3,2.4,0c0.1,0.2-0.9,0.6-2.6,1.7
					c-0.6,0.4-1.4,0.9-2.2,1.7c-1.1,1.1-1.6,2.2-2.2,3.4c-0.5,1-1.2,2.8-1.3,5.1c0,0.8-0.1,2.7,0.6,3c0.6,0.2,1.3-0.9,2.2-1.9
					c2.1-2.2,4.7-3.1,9.1-4.4c3.7-1.1,4.8-0.9,6.1-2.3c0.7-0.8,0.7-1.2,2-3.2c1.3-2,1.8-2.4,2.8-3.8c1.5-2,2.1-3.8,3.5-7.2
					c1.5-3.7,1.5-4.8,1.3-5.7c-0.1-0.5-0.3-1.8-1.3-3c-1.4-1.8-2.9-1.4-3.7-2.5c-1.3-1.8,1.2-4.4,1.5-7.2
					C326.9,125.4,326.3,121.6,318.9,116.6L318.9,116.6z"/>
				<g>
					<g>
						<path class="st1" d="M362.9,38.2c0.1-0.4,0.8-3.5,3.5-5.2c0.6-0.4,2.5-1,4.6-1.1c1.3-0.1,1.6,0,3.1,0.1c1.3,0,1.8,0.5,2.6,0.6
							c1.7,0.1,2.7,2.2,3.1,3c0.8,1.6,1,3.1,1,3.8c0.1,1-0.1,3.6-4.8,10.4c-2.6,3.8-4.1,6-5.7,5.7c-1-0.2-1.5-1.2-3.5-5.7
							C363,41.3,362.5,40.2,362.9,38.2L362.9,38.2z"/>
						<g class="st2">
							<path class="st3" d="M369.5,54.9c1-0.1,0.9-1.3,3.9-6.1c2.5-4,3.7-4.8,4.3-7.5c0.4-1.5,1-4-0.5-5.6c-1.5-1.6-4.3-1.1-5.8-0.9
								c-0.7,0.1-5.2,0.9-7.5,4.2C359.9,45.2,366.5,55.2,369.5,54.9L369.5,54.9z"/>
						</g>
						<g>
							<path class="st4" d="M326.2,12.4c-1.5-0.1-3.1,0.2-4.6,0.6c-4.9,1.1-10.4,2.5-13,6.8c1.2-0.2,2.3-0.2,3.5-0.2
								c-4.7,2.8-8.4,7.3-10.1,12.4c2.1-1.2,4.3-2.3,6.5-3.4c1-0.5,2.3-1,3.3-0.5c-2,1.1-3.9,2.6-5.5,4.3c1.1-0.5,2.4-0.7,3.7-0.5
								c-1.6,0.9-3.3,1.9-4.4,3.3c-1.2,1.4-1.9,3.3-1.4,5.1c2.9-3.2,5.8-6.3,8.7-9.5c2-2.2,4.1-4.5,6.6-6.1c2.5-1.7,5.7-2.7,8.7-2.1
								c1.8,0.3,3.4,1.2,5.1,1.9c2.4,1,4.8,1.8,7.3,2.3c1.2,0.2,2.5,0.4,3.5-0.2c0.5-0.3,0.9-0.8,1.4-1.1c1.1-0.7,2.5-0.4,3.7-0.2
								c1.3,0.2,2.7,0.5,3.7,1.4c0.2,0.2,0.4,0.4,0.7,0.5c0.2,0,0.4,0,0.6,0c1,0,1.8,0.7,2.4,1.5s0.9,1.7,1.6,2.4
								c1.3,1.3,3.4,1.5,5.2,1.6c1.3,0.1,2.6,0.2,3.9,0.2c-3.1-2.4-6.2-4.8-9.3-7.2c3.1,0,6.2,0.1,9.4,0.1
								c-3.9-2.1-8.2-3.7-12.5-4.7c3.3-0.2,6.5-0.4,9.8-0.6c-1.8-1.7-4.6-1.8-7.1-1.7c-4.7,0.2-9.4,0.9-14,2l10.8-6.3
								c1.1-0.7,2.3-1.4,3.6-1.8c-2.3-0.7-4.8-0.2-7.2,0.3c-2.3,0.5-4.5,1.1-6.8,1.8c2.5-2.2,5-4.3,7.6-6.3
								c-0.2,0.2-2.1-0.3-2.5-0.4c-0.9-0.1-1.8-0.1-2.7-0.1c-1.8,0-3.6,0.3-5.3,0.8c-3.6,0.9-6.6,2.7-9.5,4.9
								c-1,0.8-1.3,0.2-2.4-0.3C328.3,12.7,327.2,12.4,326.2,12.4L326.2,12.4z"/>
							<g>
								<defs>
									<path id="SVGID_00000160186522888631419900000011171139138699448249_" d="M326.8,22.2c-4.9,0.2-8.7,3.4-10.2,4.7
										c-2,1.7-3.1,3.3-4.6,5.3c-1.8,2.5-3.4,4.8-4.4,8.2c-0.4,1.5-1.2,4.5-0.4,8.2c0.5,2.4,1.4,4.1,2.2,5.5
										c1.5,2.7,3.1,4.5,4.8,6.3c3.1,3.4,4.1,3.5,5.9,5.9c1.8,2.4,2.5,4.6,3,6.3c1.8,5.6,1.4,10.4,0.9,15.2
										c-0.5,4.5-1.3,8.1-2.8,14.4c-0.3,1.3-1.1,4.6-1.7,9.1c-0.7,5.1-0.5,6.5-0.2,7.4c0.8,3.2,2.9,5.1,5.2,7.4
										c1.5,1.5,4.3,4.1,8.7,5.9c5.4,2.2,10,1.9,13.9,1.7c5.4-0.3,11.1-0.7,15.9-4.6c3-2.4,4.8-5.7,5.4-6.8
										c1.4-2.4,1.3-3.2,2.6-6.1c2.8-6.3,4.7-6.4,6.1-10.3c0.4-1.2,0.3-4.6,0-11.4c-0.5-10.5-0.5-11.6-0.9-13.9
										c-0.1-0.8-0.7-4.4-2-9.1c-1.1-4-1.6-4.9-2.4-8.5c-1.3-5.7-0.3-5.2-1.3-8c-1.7-4.9-4.6-5.8-6.3-11c-0.6-1.8-1-3-1.1-4.7
										c-0.1-1.9,0.3-2.5-0.2-3.6c-0.6-1.5-1.6-1.4-3.1-3.2c-1.3-1.7-0.9-2.4-2-3.8c-1-1.2-2.2-1.8-4.8-2.8
										c-2.5-1-4.8-1.9-7.8-1.9c-2.8,0-3.1,0.8-5.7,1.1C333.6,25.9,332.4,22,326.8,22.2L326.8,22.2z"/>
								</defs>
								<clipPath id="SVGID_00000092440931569436746430000015144291025871132313_">
									<use xlink:href="#SVGID_00000160186522888631419900000011171139138699448249_"  style="overflow:visible;"/>
								</clipPath>
								<g style="clip-path:url(#SVGID_00000092440931569436746430000015144291025871132313_);">
									<rect x="306.4" y="22" class="st6" width="71" height="112.3"/>
									<ellipse class="st6" cx="338.1" cy="51.1" rx="35.4" ry="34.4"/>
									<ellipse class="st7" cx="338.1" cy="50.7" rx="35" ry="33.9"/>
									<ellipse class="st8" cx="338.1" cy="50.4" rx="34.5" ry="33.5"/>
									<ellipse class="st9" cx="338" cy="50" rx="34.1" ry="33.1"/>
									<ellipse class="st10" cx="338" cy="49.6" rx="33.7" ry="32.7"/>
									<ellipse class="st11" cx="337.9" cy="49.2" rx="33.3" ry="32.3"/>
									<ellipse class="st12" cx="337.9" cy="48.8" rx="32.8" ry="31.9"/>
									<ellipse class="st13" cx="337.9" cy="48.4" rx="32.4" ry="31.4"/>
									<ellipse class="st14" cx="337.8" cy="48" rx="32" ry="31"/>
									<ellipse class="st15" cx="337.8" cy="47.6" rx="31.5" ry="30.6"/>
									<ellipse class="st16" cx="337.7" cy="47.2" rx="31.1" ry="30.2"/>
									<ellipse class="st17" cx="337.7" cy="46.5" rx="30.3" ry="29.4"/>
									<ellipse class="st18" cx="337.6" cy="46.1" rx="29.8" ry="28.9"/>
									<ellipse class="st19" cx="337.6" cy="45.7" rx="29.4" ry="28.5"/>
									<ellipse class="st20" cx="337.5" cy="45.3" rx="29" ry="28.1"/>
									<ellipse class="st21" cx="337.5" cy="44.9" rx="28.5" ry="27.7"/>
									<ellipse class="st22" cx="337.4" cy="44.5" rx="28.1" ry="27.3"/>
									<ellipse class="st23" cx="337.4" cy="44.1" rx="27.7" ry="26.9"/>
									<ellipse class="st24" cx="337.4" cy="43.7" rx="27.2" ry="26.5"/>
									<ellipse class="st25" cx="337.3" cy="43.4" rx="26.8" ry="26"/>
									<ellipse class="st26" cx="337.3" cy="43" rx="26.4" ry="25.6"/>
									<ellipse class="st27" cx="337.2" cy="42.6" rx="26" ry="25.2"/>
									<ellipse class="st28" cx="337.2" cy="42.2" rx="25.5" ry="24.8"/>
									<ellipse class="st29" cx="337.2" cy="41.8" rx="25.1" ry="24.4"/>
									<ellipse class="st30" cx="337.1" cy="41.4" rx="24.7" ry="23.9"/>
									<ellipse class="st31" cx="337" cy="40.3" rx="23.4" ry="22.7"/>
									<ellipse class="st32" cx="337" cy="39.9" rx="23" ry="22.3"/>
									<ellipse class="st33" cx="336.9" cy="39.5" rx="22.5" ry="21.9"/>
									<ellipse class="st34" cx="336.9" cy="39.1" rx="22.1" ry="21.4"/>
									<ellipse class="st35" cx="336.8" cy="38.7" rx="21.7" ry="21"/>
									<ellipse class="st36" cx="336.8" cy="38.3" rx="21.2" ry="20.6"/>
									<ellipse class="st37" cx="336.8" cy="37.9" rx="20.8" ry="20.2"/>
									<ellipse class="st38" cx="336.7" cy="37.5" rx="20.4" ry="19.8"/>
									<ellipse class="st39" cx="336.7" cy="37.1" rx="20" ry="19.4"/>
									<ellipse class="st40" cx="336.6" cy="36.8" rx="19.5" ry="19"/>
									<ellipse class="st41" cx="336.6" cy="36.4" rx="19.1" ry="18.5"/>
									<ellipse class="st42" cx="336.6" cy="36" rx="18.7" ry="18.1"/>
									<ellipse class="st43" cx="336.5" cy="35.6" rx="18.2" ry="17.7"/>
									<ellipse class="st44" cx="336.5" cy="35.2" rx="17.8" ry="17.3"/>
									<ellipse class="st45" cx="336.4" cy="34.8" rx="17.4" ry="16.9"/>
									<ellipse class="st46" cx="336.4" cy="34.4" rx="17" ry="16.5"/>
									<ellipse class="st47" cx="336.3" cy="34" rx="16.5" ry="16"/>
									<ellipse class="st47" cx="336.3" cy="33.6" rx="16.1" ry="15.6"/>
									<ellipse class="st48" cx="336.3" cy="33.3" rx="15.7" ry="15.2"/>
									<ellipse class="st48" cx="336.2" cy="32.9" rx="15.2" ry="14.8"/>
									<ellipse class="st49" cx="336.2" cy="32.5" rx="14.8" ry="14.4"/>
									<ellipse class="st50" cx="336.1" cy="32.1" rx="14.4" ry="14"/>
									<ellipse class="st50" cx="336.1" cy="31.7" rx="13.9" ry="13.5"/>
									<ellipse class="st51" cx="336.1" cy="31.3" rx="13.5" ry="13.1"/>
									<ellipse class="st52" cx="336" cy="30.9" rx="13.1" ry="12.7"/>
									<ellipse class="st52" cx="336" cy="30.5" rx="12.7" ry="12.3"/>
									<ellipse class="st52" cx="335.9" cy="30.1" rx="12.2" ry="11.9"/>
									<ellipse class="st53" cx="335.9" cy="29.8" rx="11.8" ry="11.5"/>
									<ellipse class="st53" cx="335.9" cy="29.4" rx="11.4" ry="11"/>
									<ellipse class="st53" cx="335.8" cy="29" rx="10.9" ry="10.6"/>
									<ellipse class="st53" cx="335.8" cy="28.6" rx="10.5" ry="10.2"/>
									<ellipse class="st53" cx="335.7" cy="28.2" rx="10.1" ry="9.8"/>
									<ellipse class="st53" cx="335.7" cy="27.8" rx="9.7" ry="9.4"/>
									<ellipse class="st54" cx="335.7" cy="27.4" rx="9.2" ry="9"/>
									<ellipse class="st54" cx="335.6" cy="27" rx="8.8" ry="8.5"/>
									<ellipse class="st54" cx="335.6" cy="26.6" rx="8.4" ry="8.1"/>
									<ellipse class="st54" cx="335.5" cy="26.3" rx="7.9" ry="7.7"/>
									<ellipse class="st54" cx="335.5" cy="25.9" rx="7.5" ry="7.3"/>
									<ellipse class="st54" cx="335.5" cy="25.5" rx="7.1" ry="6.9"/>
									<ellipse class="st54" cx="335.4" cy="25.1" rx="6.7" ry="6.5"/>
									<ellipse class="st54" cx="335.4" cy="24.7" rx="6.2" ry="6"/>
									<ellipse class="st54" cx="335.3" cy="24.3" rx="5.8" ry="5.6"/>
									<ellipse class="st54" cx="335.3" cy="23.9" rx="5.4" ry="5.2"/>
									<ellipse class="st54" cx="335.2" cy="23.5" rx="4.9" ry="4.8"/>
									<ellipse class="st54" cx="335.2" cy="23.1" rx="4.5" ry="4.4"/>
									<ellipse class="st54" cx="335.2" cy="22.8" rx="4.1" ry="4"/>
								</g>
							</g>
						</g>
					</g>
					<g>
						<defs>
							<path id="SVGID_00000089570092541285392170000007892035570778024639_" d="M318.3,121.6c-1.1-0.4-2-0.4-2.7-0.2
								c0,0-0.1,0-0.1,0c-0.1-0.4-0.1-0.8-0.2-1.4c-0.1-2.2,0.4-3.6,0.9-5.4c1.1-4,0.4-4.3,1.3-8.8c0.7-3.3,1.5-5.6,2.4-7.9
								c2.9-7.8,6-8.2,5-12c-1.5-5.7,0.2-14.5-3.3-10.4c0,0-2.9,3.6-5.9,10.9c-2.4,5.7-3.9,10.2-4.4,11.6c-1.7,4.9-1.2,4-4.3,14.5
								c-1.9,6.3-2.6,8.5-2.3,9.8c-0.1,0.1-0.2,0.1-0.3,0.2c-0.7,0.6-1.1,1.4-1.3,2.7c-0.5,2-0.5,5,0.5,8.7c1.2,4.5,3.4,5.9,3.9,3.5
								c0.3-1.2-0.1-2.6-0.3-4.1c0.1,0,0.1,0,0.2,0c0.1,1.1,0.4,2.3,0.7,3.6c1.2,4.6,3.4,6,3.9,3.6c0.2-1.2-0.1-2.5-0.3-4.1
								c0.1,0.3,0.1,0.5,0.2,0.8c1.1,4.1,3.1,5.3,3.6,3.1c0.4-1.8-0.6-3.8-0.5-6.8c0-0.3,0-0.5,0-0.8c0.3,0.9,0.8,1.9,1.3,3
								c2,3.7,4.3,4.4,4.3,2.1c0-1.9-1.4-3.6-2-6.4c-0.6-3.4-1.1-5.3-1.8-6.2c0.6,0.3,1.1,0.7,1.7,1.3c2.9,3,4.1,3.7,4.7,1.9
								C323.9,126.6,322.7,123.2,318.3,121.6L318.3,121.6z"/>
						</defs>
						<clipPath id="SVGID_00000075848017814009750560000011617276691057566872_">
							<use xlink:href="#SVGID_00000089570092541285392170000007892035570778024639_"  style="overflow:visible;"/>
						</clipPath>
						<g style="clip-path:url(#SVGID_00000075848017814009750560000011617276691057566872_);">
							<polygon class="st56" points="304.3,142.6 302.7,138 302.7,107.7 325.9,99.2 325.9,142.6 							"/>
							<polygon class="st56" points="302.7,107.5 325.9,99.1 325.9,99.2 302.7,107.7 							"/>
							<polygon class="st57" points="302.7,107.4 325.9,98.9 325.9,99.1 302.7,107.5 							"/>
							<polygon class="st58" points="302.7,107.2 325.9,98.8 325.9,98.9 302.7,107.4 							"/>
							<polygon class="st59" points="302.7,107.1 325.9,98.6 325.9,98.8 302.7,107.2 							"/>
							<polygon class="st60" points="302.7,106.9 325.9,98.5 325.9,98.6 302.7,107.1 							"/>
							<polygon class="st61" points="302.7,106.8 325.9,98.3 325.9,98.5 302.7,106.9 							"/>
							<polygon class="st62" points="302.7,106.6 325.9,98.2 325.9,98.3 302.7,106.8 							"/>
							<polygon points="302.7,106.4 325.9,98 325.9,98.2 302.7,106.6 							"/>
							<polygon class="st63" points="302.7,106.3 325.9,97.9 325.9,98 302.7,106.4 							"/>
							<polygon class="st64" points="302.7,106.1 325.9,97.7 325.9,97.9 302.7,106.3 							"/>
							<polygon class="st65" points="302.7,106 325.9,97.5 325.9,97.7 302.7,106.1 							"/>
							<polygon class="st66" points="302.7,105.8 325.9,97.4 325.9,97.5 302.7,106 							"/>
							<polygon class="st67" points="302.7,105.7 325.9,97.2 325.9,97.4 302.7,105.8 							"/>
							<polygon class="st68" points="302.7,105.5 325.9,97.1 325.9,97.2 302.7,105.7 							"/>
							<polygon class="st69" points="302.7,105.4 325.9,96.9 325.9,97.1 302.7,105.5 							"/>
							<polygon class="st70" points="302.7,105.2 325.9,96.8 325.9,96.9 302.7,105.4 							"/>
							<polygon class="st71" points="302.7,105.1 325.9,96.6 325.9,96.8 302.7,105.2 							"/>
							<polygon class="st72" points="302.7,104.9 325.9,96.5 325.9,96.6 302.7,105.1 							"/>
							<polygon class="st73" points="302.7,104.7 325.9,96.3 325.9,96.5 302.7,104.9 							"/>
							<polygon class="st74" points="302.7,104.6 325.9,96.2 325.9,96.3 302.7,104.7 							"/>
							<polygon class="st75" points="302.7,104.4 325.9,96 325.9,96.2 302.7,104.6 							"/>
							<polygon class="st76" points="302.7,104.3 325.9,95.8 325.9,96 302.7,104.4 							"/>
							<polygon class="st77" points="302.7,104.1 325.9,95.7 325.9,95.8 302.7,104.3 							"/>
							<polygon class="st78" points="302.7,104 325.9,95.5 325.9,95.7 302.7,104.1 							"/>
							<polygon class="st79" points="302.7,103.8 325.9,95.4 325.9,95.5 302.7,104 							"/>
							<polygon class="st80" points="302.7,103.7 325.9,95.2 325.9,95.4 302.7,103.8 							"/>
							<polygon class="st81" points="302.7,103.5 325.9,95.1 325.9,95.2 302.7,103.7 							"/>
							<polygon class="st82" points="302.7,103.4 325.9,94.9 325.9,95.1 302.7,103.5 							"/>
							<polygon class="st83" points="302.7,103.2 325.9,94.8 325.9,94.9 302.7,103.4 							"/>
							<polygon class="st84" points="302.7,103 325.9,94.6 325.9,94.8 302.7,103.2 							"/>
							<polygon class="st85" points="302.7,102.9 325.9,94.5 325.9,94.6 302.7,103 							"/>
							<polygon class="st86" points="302.7,102.7 325.9,94.3 325.9,94.5 302.7,102.9 							"/>
							<polygon class="st87" points="302.7,102.6 325.9,94.2 325.9,94.3 302.7,102.7 							"/>
							<polygon class="st88" points="302.7,102.4 325.9,94 325.9,94.2 302.7,102.6 							"/>
							<polygon points="302.7,102.3 325.9,93.8 325.9,94 302.7,102.4 							"/>
							<polygon class="st89" points="302.7,102.1 325.9,93.7 325.9,93.8 302.7,102.3 							"/>
							<polygon class="st90" points="302.7,102 325.9,93.5 325.9,93.7 302.7,102.1 							"/>
							<polygon class="st91" points="302.7,101.8 325.9,93.4 325.9,93.5 302.7,102 							"/>
							<polygon class="st92" points="302.7,101.7 325.9,93.2 325.9,93.4 302.7,101.8 							"/>
							<polygon class="st93" points="302.7,101.5 325.9,93.1 325.9,93.2 302.7,101.7 							"/>
							<polygon class="st94" points="302.7,101.3 325.9,92.9 325.9,93.1 302.7,101.5 							"/>
							<polygon class="st95" points="302.7,101.2 325.9,92.8 325.9,92.9 302.7,101.3 							"/>
							<polygon class="st96" points="302.7,101 325.9,92.6 325.9,92.8 302.7,101.2 							"/>
							<polygon class="st97" points="302.7,100.9 325.9,92.5 325.9,92.6 302.7,101 							"/>
							<polygon class="st98" points="302.7,100.7 325.9,92.3 325.9,92.5 302.7,100.9 							"/>
							<polygon class="st99" points="302.7,100.6 325.9,92.1 325.9,92.3 302.7,100.7 							"/>
							<polygon class="st100" points="302.7,100.4 325.9,92 325.9,92.1 302.7,100.6 							"/>
							<polygon class="st101" points="302.7,100.3 325.9,91.8 325.9,92 302.7,100.4 							"/>
							<polygon class="st102" points="302.7,100.1 325.9,91.7 325.9,91.8 302.7,100.3 							"/>
							<polygon points="302.7,100 325.9,91.5 325.9,91.7 302.7,100.1 							"/>
							<polygon class="st103" points="302.7,99.8 325.9,91.4 325.9,91.5 302.7,100 							"/>
							<polygon class="st104" points="302.7,99.6 325.9,91.2 325.9,91.4 302.7,99.8 							"/>
							<polygon class="st105" points="302.7,99.5 325.9,91.1 325.9,91.2 302.7,99.6 							"/>
							<polygon class="st106" points="302.7,99.3 325.9,90.9 325.9,91.1 302.7,99.5 							"/>
							<polygon class="st107" points="302.7,99.2 325.9,90.8 325.9,90.9 302.7,99.3 							"/>
							<polygon class="st108" points="302.7,99 325.9,90.6 325.9,90.8 302.7,99.2 							"/>
							<polygon class="st109" points="302.7,98.9 325.9,90.4 325.9,90.6 302.7,99 							"/>
							<polygon class="st110" points="302.7,98.7 325.9,90.3 325.9,90.4 302.7,98.9 							"/>
							<polygon class="st111" points="302.7,98.6 325.9,90.1 325.9,90.3 302.7,98.7 							"/>
							<polygon class="st112" points="302.7,98.4 325.9,90 325.9,90.1 302.7,98.6 							"/>
							<polygon class="st113" points="302.7,98.3 325.9,89.8 325.9,90 302.7,98.4 							"/>
							<polygon class="st114" points="302.7,98.1 325.9,89.7 325.9,89.8 302.7,98.3 							"/>
							<polygon class="st115" points="302.7,97.9 325.9,89.5 325.9,89.7 302.7,98.1 							"/>
							<polygon class="st116" points="302.7,97.8 325.9,89.4 325.9,89.5 302.7,97.9 							"/>
							<polygon class="st117" points="302.7,97.6 325.9,89.2 325.9,89.4 302.7,97.8 							"/>
							<polygon class="st118" points="302.7,97.5 325.9,89.1 325.9,89.2 302.7,97.6 							"/>
							<polygon class="st119" points="302.7,97.3 325.9,88.9 325.9,89.1 302.7,97.5 							"/>
							<polygon class="st120" points="302.7,97.2 325.9,88.7 325.9,88.9 302.7,97.3 							"/>
							<polygon class="st121" points="302.7,97 325.9,88.6 325.9,88.7 302.7,97.2 							"/>
							<polygon class="st122" points="302.7,96.9 325.9,88.4 325.9,88.6 302.7,97 							"/>
							<polygon class="st123" points="302.7,96.7 325.9,88.3 325.9,88.4 302.7,96.9 							"/>
							<polygon class="st124" points="302.7,96.6 325.9,88.1 325.9,88.3 302.7,96.7 							"/>
							<polygon class="st125" points="302.7,96.4 325.9,88 325.9,88.1 302.7,96.6 							"/>
							<polygon class="st126" points="302.7,96.2 325.9,87.8 325.9,88 302.7,96.4 							"/>
							<polygon class="st127" points="302.7,96.1 325.9,87.7 325.9,87.8 302.7,96.2 							"/>
							<polygon class="st128" points="302.7,95.9 325.9,87.5 325.9,87.7 302.7,96.1 							"/>
							<polygon class="st129" points="302.7,95.8 325.9,87.4 325.9,87.5 302.7,95.9 							"/>
							<polygon class="st130" points="302.7,95.6 325.9,87.2 325.9,87.4 302.7,95.8 							"/>
							<polygon class="st131" points="302.7,95.5 325.9,87 325.9,87.2 302.7,95.6 							"/>
							<polygon class="st132" points="302.7,95.3 325.9,86.9 325.9,87 302.7,95.5 							"/>
							<polygon class="st1" points="302.7,95.2 325.9,86.7 325.9,86.9 302.7,95.3 							"/>
							<polygon class="st1" points="325.9,86.7 302.7,95.2 302.7,71.1 325.9,71.1 							"/>
						</g>
					</g>
					<g>
						<defs>
							<path id="SVGID_00000110445811460530616460000013007008031834701442_" d="M363.9,95c-2.2,3.8-2.1,16.1-1.7,17.5
								c0.2,1,0.8,3.4,0.4,6.3c-0.2,1.1-0.4,2.9-1.5,4.6c-0.6,1-1.5,2-6.5,4.9c-4.1,2.4-6,3.1-7.6,5.3c-0.5,0.6-1.7,2.3-1.1,3.4
								c0.2,0.4,0.7,0.6,1.1,0.8c1.2,0.6,2.5,0.5,3.1,0.4c3.2-0.4,5.3-3.2,5.7-3c0.2,0.2-1.5,1.7-2.4,4.4c0,0-0.3,0.8-0.9,5.3l0,0
								c0,0,0.5,0.9,1.1,1.1c0.8,0.2,2-1.1,2.6-2.3c0.2-0.3,0.4-0.9,0.7-2.5c0.5-3.2,0.2-4.6,1.1-5.1c0.4-0.3,1.1-0.3,1.3,0
								c0.2,0.2,0.1,0.6-0.4,2.1c-0.3,0.8-0.4,1.1-0.4,1.3c-0.6,1.6-1.4,3.6-1.1,5.7c0.1,0.7,0.2,1.7,0.9,1.9c0.6,0.2,1.5-0.4,2-1.1
								c0.7-0.9,0.6-1.9,0.4-3.6c-0.4-5.4-0.1-6.2,0.4-6.6c0.4-0.3,1.1-0.3,1.3,0c0.3,0.3,0,0.9-0.2,1.9c-0.1,0.4-0.1,1.1-0.2,2.3
								c-0.1,1.6-0.2,2.3,0,3.4c0.2,1.1,0.3,2.2,1.1,2.5c0.6,0.3,1.3,0.1,1.7-0.2c2.5-1.6-0.6-9.8-0.2-9.9c0.4-0.1,2.6,6.3,2.6,6.3
								l0,0c0,0,1,0.7,1.7,0.6c0.8-0.1,1.4-1,1.5-1.3c0.4-0.7,0.8-2-0.6-6.6c-0.8-2.6-1.1-2.7-1.5-4.4c-0.5-2-0.5-3.6-0.4-5.1
								c0.1-4.6,0.8-7.3,1.3-11.6c0.6-5.4,0-4.5,0.6-10.3c0.7-6.3,1.6-8.7,0.2-9.7C368.5,92.9,365,93,363.9,95L363.9,95z"/>
						</defs>
						<clipPath id="SVGID_00000075874278110489760130000016991252711399887760_">
							<use xlink:href="#SVGID_00000110445811460530616460000013007008031834701442_"  style="overflow:visible;"/>
						</clipPath>
						<g style="clip-path:url(#SVGID_00000075874278110489760130000016991252711399887760_);">
							<polygon class="st56" points="345.2,119.3 345.2,119.1 371.1,122.2 371.1,147.4 345.2,147.4 							"/>
							<polygon class="st56" points="345.2,119.1 346.9,105.5 371.1,108.5 371.1,122.2 							"/>
							<polygon class="st56" points="346.9,105.5 346.9,105.4 371.1,108.4 371.1,108.5 							"/>
							<polygon class="st56" points="346.9,105.4 346.9,105.4 371.1,108.3 371.1,108.4 							"/>
							<polygon class="st56" points="346.9,105.4 346.9,105.3 371.1,108.2 371.1,108.3 							"/>
							<polygon class="st56" points="346.9,105.3 346.9,105.2 371.1,108.1 371.1,108.2 							"/>
							<polygon class="st56" points="346.9,105.2 346.9,105.1 371.1,108.1 371.1,108.1 							"/>
							<polygon class="st56" points="346.9,105.1 346.9,105.1 371.1,108 371.1,108.1 							"/>
							<polygon class="st57" points="346.9,105.1 346.9,105 371.1,107.9 371.1,108 							"/>
							<polygon class="st57" points="346.9,105 347,104.9 371.1,107.8 371.1,107.9 							"/>
							<polygon class="st57" points="347,104.9 347,104.8 371.1,107.8 371.1,107.8 							"/>
							<polygon class="st57" points="347,104.8 347,104.7 371.1,107.7 371.1,107.8 							"/>
							<polygon class="st134" points="347,104.7 347,104.7 371.1,107.6 371.1,107.7 							"/>
							<polygon class="st58" points="347,104.7 347,104.6 371.1,107.5 371.1,107.6 							"/>
							<polygon class="st58" points="347,104.6 347,104.5 371.1,107.4 371.1,107.5 							"/>
							<polygon class="st135" points="347,104.5 347,104.4 371.1,107.4 371.1,107.4 							"/>
							<polygon class="st59" points="347,104.4 347,104.4 371.1,107.3 371.1,107.4 							"/>
							<polygon class="st59" points="347,104.4 347,104.3 371.1,107.2 371.1,107.3 							"/>
							<polygon points="347,104.3 347,104.2 371.1,107.1 371.1,107.2 							"/>
							<polygon class="st60" points="347,104.2 347,104.1 371.1,107.1 371.1,107.1 							"/>
							<polygon class="st136" points="347,104.1 347.1,104.1 371.1,107 371.1,107.1 							"/>
							<polygon class="st61" points="347.1,104.1 347.1,104 371.1,106.9 371.1,107 							"/>
							<polygon class="st62" points="347.1,104 347.1,103.9 371.1,106.8 371.1,106.9 							"/>
							<polygon class="st137" points="347.1,103.9 347.1,103.8 371.1,106.7 371.1,106.8 							"/>
							<polygon points="347.1,103.8 347.1,103.7 371.1,106.7 371.1,106.7 							"/>
							<polygon class="st138" points="347.1,103.7 347.1,103.7 371.1,106.6 371.1,106.7 							"/>
							<polygon class="st139" points="347.1,103.7 347.1,103.6 371.1,106.5 371.1,106.6 							"/>
							<polygon class="st64" points="347.1,103.6 347.1,103.5 371.1,106.4 371.1,106.5 							"/>
							<polygon class="st65" points="347.1,103.5 347.1,103.4 371.1,106.3 371.1,106.4 							"/>
							<polygon class="st140" points="347.1,103.4 347.1,103.4 371.1,106.3 371.1,106.3 							"/>
							<polygon class="st66" points="347.1,103.4 347.1,103.3 371.1,106.2 371.1,106.3 							"/>
							<polygon class="st67" points="347.1,103.3 347.2,103.2 371.1,106.1 371.1,106.2 							"/>
							<polygon class="st141" points="347.2,103.2 347.2,103.1 371.1,106 371.1,106.1 							"/>
							<polygon class="st142" points="347.2,103.1 347.2,103.1 371.1,106 371.1,106 							"/>
							<polygon class="st143" points="347.2,103.1 347.2,103 371.1,105.9 371.1,106 							"/>
							<polygon class="st70" points="347.2,103 347.2,102.9 371.1,105.8 371.1,105.9 							"/>
							<polygon class="st71" points="347.2,102.9 347.2,102.8 371.1,105.7 371.1,105.8 							"/>
							<polygon class="st72" points="347.2,102.8 347.2,102.7 371.1,105.6 371.1,105.7 							"/>
							<polygon class="st73" points="347.2,102.7 347.2,102.7 371.1,105.6 371.1,105.6 							"/>
							<polygon class="st74" points="347.2,102.7 347.2,102.6 371.1,105.5 371.1,105.6 							"/>
							<polygon class="st75" points="347.2,102.6 347.2,102.5 371.1,105.4 371.1,105.5 							"/>
							<polygon class="st76" points="347.2,102.5 347.3,102.4 371.1,105.3 371.1,105.4 							"/>
							<polygon class="st77" points="347.3,102.4 347.3,102.4 371.1,105.3 371.1,105.3 							"/>
							<polygon class="st78" points="347.3,102.4 347.3,102.3 371.1,105.2 371.1,105.3 							"/>
							<polygon class="st79" points="347.3,102.3 347.3,102.2 371.1,105.1 371.1,105.2 							"/>
							<polygon class="st80" points="347.3,102.2 347.3,102.1 371.1,105 371.1,105.1 							"/>
							<polygon class="st81" points="347.3,102.1 347.3,102.1 371.1,104.9 371.1,105 							"/>
							<polygon class="st82" points="347.3,102.1 347.3,102 371.1,104.9 371.1,104.9 							"/>
							<polygon class="st83" points="347.3,102 347.3,101.9 371.1,104.8 371.1,104.9 							"/>
							<polygon class="st144" points="347.3,101.9 347.3,101.8 371.1,104.7 371.1,104.8 							"/>
							<polygon class="st145" points="347.3,101.8 347.3,101.7 371.1,104.6 371.1,104.7 							"/>
							<polygon class="st146" points="347.3,101.7 347.3,101.7 371.1,104.6 371.1,104.6 							"/>
							<polygon class="st147" points="347.3,101.7 347.4,101.6 371.1,104.5 371.1,104.6 							"/>
							<polygon class="st148" points="347.4,101.6 347.4,101.5 371.1,104.4 371.1,104.5 							"/>
							<polygon class="st90" points="347.4,101.5 347.4,101.4 371.1,104.3 371.1,104.4 							"/>
							<polygon class="st91" points="347.4,101.4 347.4,101.4 371.1,104.2 371.1,104.3 							"/>
							<polygon class="st149" points="347.4,101.4 347.4,101.3 371.1,104.2 371.1,104.2 							"/>
							<polygon class="st150" points="347.4,101.3 347.4,101.2 371.1,104.1 371.1,104.2 							"/>
							<polygon class="st95" points="347.4,101.2 347.4,101.1 371.1,104 371.1,104.1 							"/>
							<polygon class="st151" points="347.4,101.1 347.4,101.1 371.1,103.9 371.1,104 							"/>
							<polygon class="st98" points="347.4,101.1 347.4,101 371.1,103.8 371.1,103.9 							"/>
							<polygon class="st152" points="347.4,101 347.4,100.9 371.1,103.8 371.1,103.8 							"/>
							<polygon class="st101" points="347.4,100.9 347.4,100.8 371.1,103.7 371.1,103.8 							"/>
							<polygon class="st102" points="347.4,100.8 347.5,100.7 371.1,103.6 371.1,103.7 							"/>
							<polygon class="st153" points="347.5,100.7 347.5,100.7 371.1,103.5 371.1,103.6 							"/>
							<polygon class="st104" points="347.5,100.7 347.5,100.6 371.1,103.5 371.1,103.5 							"/>
							<polygon points="347.5,100.6 347.5,100.5 371.1,103.4 371.1,103.5 							"/>
							<polygon class="st154" points="347.5,100.5 347.5,100.4 371.1,103.3 371.1,103.4 							"/>
							<polygon class="st155" points="347.5,100.4 347.5,100.4 371.1,103.2 371.1,103.3 							"/>
							<polygon class="st110" points="347.5,100.4 347.5,100.3 371.1,103.1 371.1,103.2 							"/>
							<polygon class="st156" points="347.5,100.3 347.5,100.2 371.1,103.1 371.1,103.1 							"/>
							<polygon class="st157" points="347.5,100.2 347.5,100.1 371.1,103 371.1,103.1 							"/>
							<polygon class="st115" points="347.5,100.1 347.5,100.1 371.1,102.9 371.1,103 							"/>
							<polygon class="st117" points="347.5,100.1 347.6,100 371.1,102.8 371.1,102.9 							"/>
							<polygon class="st158" points="347.6,100 347.6,99.9 371.1,102.8 371.1,102.8 							"/>
							<polygon class="st159" points="347.6,99.9 347.6,99.8 371.1,102.7 371.1,102.8 							"/>
							<polygon class="st122" points="347.6,99.8 347.6,99.7 371.1,102.6 371.1,102.7 							"/>
							<polygon class="st160" points="347.6,99.7 347.6,99.7 371.1,102.5 371.1,102.6 							"/>
							<polygon class="st161" points="347.6,99.7 347.6,99.6 371.1,102.4 371.1,102.5 							"/>
							<polygon class="st162" points="347.6,99.6 347.6,99.5 371.1,102.4 371.1,102.4 							"/>
							<polygon class="st163" points="347.6,99.5 347.6,99.4 371.1,102.3 371.1,102.4 							"/>
							<polygon class="st131" points="347.6,99.4 347.6,99.4 371.1,102.2 371.1,102.3 							"/>
							<polygon class="st1" points="347.6,99.4 347.6,99.3 371.1,102.1 371.1,102.2 							"/>
							<polygon class="st1" points="347.6,99.3 348.4,92.9 371.1,92.9 371.1,102.1 							"/>
						</g>
					</g>
				</g>
			</g>
			<path class="st164" d="M298.9,150.8c-1.3,0.8-1.9,2-2.6,3.6c-0.7,1.5-0.9,2.7-1.3,5.3c-0.5,3-0.2,3.3,0,3.4
				c0.5,0.3,1.6-0.7,2.6-1.5c2.7-2.2,3.1-1.6,6.8-4c1.4-1,1.6-1.2,2.4-1.5c1.7-0.6,2.7-0.2,3.5-1.1c0.4-0.5,0.6-1.1,0.4-1.7
				s-0.6-1.3-3.3-2.1C304,150.2,301.2,149.4,298.9,150.8L298.9,150.8z"/>
			<path class="st164" d="M307.8,155.1c1.2-0.4,2.2-0.3,3-0.2c1.8,0.1,3.2,0.7,3.5,0.9c2.6,1.1,5.3,3.7,4.8,5.1
				c-0.3,0.7-1.1,0.4-3.5,1.5c-1.9,0.8-1.9,1.3-3.7,2.1c-2.4,1.1-2.7,0.6-4.6,1.5c-3,1.5-3.7,3.9-4.8,3.6c-1-0.3-1.2-2.6-1.3-3.6
				c0-0.4-0.2-2.2,0.7-4.4c0.1-0.4,0.8-2.1,2.4-3.8C305.3,156.6,306.3,155.6,307.8,155.1L307.8,155.1z"/>
		</g>
		<path class="st164" d="M343,165c0.4-1.7,3.6-2.6,5.1-2.9c1.4-0.4,3.4-0.9,5.8-0.3c0.3,0.1,3,0.8,3,1.9c0,0.5-0.5,0.8-1.2,1.5
			c-0.7,0.6-1.3,1.5-2.6,3.4c-2.4,3.5-1.8,5-3.2,5.4c-1.8,0.5-4.1-1.5-4.4-1.9c-0.4-0.4-1.1-1-1.6-2.1c-0.4-0.9-0.2-1.3-0.6-3.5
			C343,165.2,342.9,165.2,343,165L343,165z"/>
		<path class="st164" d="M355.9,164.6c0.6-0.9,1.5-1.3,2.6-1.7c0.3-0.1,1.4-0.5,3-0.6c1.4-0.1,4-0.3,4.6,0.8
			c0.1,0.2,0.2,0.5-0.4,2.1c-0.6,1.5-1.1,2.6-1.7,3.8c-1,2-1.5,2.7-2.2,3.4c-0.9,0.9-1.4,1-1.7,1.1c-0.9,0-1.5-0.6-2.2-1.3
			c-1.6-1.7-2.1-3.6-2.2-4.2C355.5,166.7,355.3,165.6,355.9,164.6L355.9,164.6z"/>
	</g>
	<g>
		<path class="st3" d="M325.6,41.1c-0.6,0-2.5,0.3-3.7,1.7c-0.3,0.3-1,1.1-0.9,2.1c0.1,0.5,0.4,0.8,0.9,1.5c0.7,0.8,1.5,1.3,1.7,1.5
			c0.3,0.2,0.8,0.4,1.5,0.6c1.2,0.3,2.3,0.2,3.7,0c1.2-0.2,2-0.4,2.8-0.6c1.3-0.4,2-0.6,2.6-1.1c0.4-0.3,1.2-0.9,1.3-1.9
			c0.2-1.2-0.6-2.3-1.5-2.8c-0.8-0.4-1.3-0.1-2.4,0C328.7,42.4,328.2,40.9,325.6,41.1L325.6,41.1z"/>
		<g>
			<path class="st165" d="M315.6,28.9c1.4-0.4,2.7,0.3,3.5,0.6c1.4,0.7,2.1,1.7,2.6,2.3c1.1,1.5,1.4,2.8,1.7,4.2
				c0.4,1.7,0.6,2.5,0.2,3.2c-0.5,0.7-1.1,0.5-4.1,1.7c-1.2,0.5-2.6,1-2.6,1.1c-1.9,0.8-2,0.9-2.6,1.1c-0.5,0.1-2.4,0.5-3.5-0.6
				c-0.8-0.8-0.7-1.9-0.6-2.8c0.1-1.4,0.6-1.8,1.3-3.8c0.9-2.5,0.5-2.8,1.3-4.2C313.3,30.7,314.1,29.3,315.6,28.9L315.6,28.9z"/>
			<path d="M313,43.7c-1.4,0-2.1-0.5-2.6-0.9c-0.9-0.9-0.8-2.3-0.8-3.1c0.1-1,0.3-1.5,0.7-2.3c0.2-0.4,0.4-0.9,0.7-1.6
				c0.4-1.1,0.6-1.8,0.6-2.3c0.1-0.6,0.2-1.1,0.7-2c0.6-1,1.4-2.5,3.1-3l0,0c1.6-0.5,3.1,0.3,3.8,0.7c1.5,0.8,2.3,1.8,2.8,2.5
				c1.1,1.5,1.5,3,1.8,4.4c0.4,1.8,0.7,2.8,0.2,3.5c-0.4,0.6-0.9,0.8-1.8,1c-0.6,0.2-1.4,0.4-2.5,0.9c-1.2,0.5-2.6,1-2.6,1
				c-0.6,0.3-1.1,0.5-1.4,0.6c-0.6,0.3-0.9,0.4-1.3,0.5C313.8,43.6,313.4,43.7,313,43.7z M315.7,29.4L315.7,29.4
				c-1.3,0.4-2,1.6-2.5,2.5c-0.4,0.7-0.5,1.1-0.6,1.7c-0.1,0.6-0.2,1.3-0.7,2.5c-0.3,0.7-0.5,1.3-0.7,1.7c-0.3,0.8-0.5,1.2-0.6,2
				c0,0.8-0.1,1.7,0.5,2.4c0.4,0.4,1.2,0.8,3,0.5c0.4-0.1,0.5-0.1,1.1-0.4c0.3-0.2,0.8-0.3,1.4-0.6c0,0,1.4-0.6,2.6-1.1
				c1.2-0.5,2-0.7,2.6-0.9c0.9-0.3,1.1-0.3,1.3-0.6c0.3-0.4,0.1-1.3-0.3-2.8c-0.3-1.4-0.6-2.7-1.7-4c-0.4-0.6-1.1-1.5-2.4-2.2
				C318.1,29.6,316.9,29,315.7,29.4L315.7,29.4z"/>
		</g>
		<path class="st166" d="M321.6,31.8c-0.9-1.4-3.5-0.1-4.8,1.1c-0.2,0.2-1.4,1.3-1.5,3.2c-0.1,1.7,0.9,3.6,2.8,4.7
			c1.1,0.6,1.6,0.4,5-1.1C325.3,38.7,323,33.7,321.6,31.8L321.6,31.8z"/>
		<g>
			<path class="st167" d="M318.4,51.7c0.2-0.2,0.9,0.8,2.6,1.5c1.1,0.5,2,0.5,3.7,0.6c1.5,0.1,2.9,0.2,4.6-0.2
				c1.1-0.3,1.2-0.5,2.4-0.8c2.4-0.8,3.2-0.3,6.3-0.8c2.7-0.4,4.1-0.7,5.2-1.7c1.7-1.6,1.7-3.8,2.4-3.8c0.5,0,0.8,1,0.9,1.9
				c0.1,2.5-2.5,4.4-3,4.9c-1,0.8-2.4,1.2-5.2,2.1c-2.5,0.8-3.8,1.2-5.4,1.5c-2.8,0.4-4.9,0.3-6.1,0.2c-2.6-0.2-3.9-0.3-5.2-1.1
				C319.1,54.5,318.1,52,318.4,51.7L318.4,51.7z"/>
			<path d="M328.9,58.1c-1,0-1.8-0.1-2.3-0.1c-2.7-0.2-4.2-0.3-5.7-1.2c-2.2-1.3-3.5-3.7-3.6-4.8c0-0.6,0.2-0.9,0.4-1.1
				c0.7-0.6,1.4,0,1.8,0.3s1,0.7,1.8,1.1c1,0.4,1.8,0.4,3.4,0.6c1.4,0.1,2.7,0.2,4.3-0.2c0.6-0.1,0.8-0.2,1.2-0.4
				c0.3-0.1,0.6-0.3,1.1-0.4c1.6-0.5,2.5-0.6,3.6-0.6c0.8,0,1.6-0.1,2.8-0.3c2.6-0.4,3.8-0.6,4.7-1.4c0.8-0.7,1.1-1.6,1.4-2.4
				c0.3-0.8,0.7-1.8,1.7-1.7c1.3,0.1,1.7,1.9,1.8,2.8c0.1,1.4-0.5,3.5-3.5,5.7c-1.2,0.9-2.7,1.4-5.5,2.3c-2.6,0.8-3.9,1.2-5.6,1.5
				C331.3,58,330,58.1,328.9,58.1L328.9,58.1z M320.8,54.2c0.3,0.3,0.7,0.6,1.1,0.9c1.1,0.7,2.2,0.7,4.8,0.9
				c1.1,0.1,3.2,0.2,5.9-0.2c1.6-0.2,2.8-0.7,5.3-1.4c2.8-0.9,4.1-1.3,4.9-2c1.6-1.2,2.6-2.5,2.6-3.7c-0.3,0.7-0.8,1.6-1.6,2.3
				c-1.3,1.2-2.9,1.5-5.7,1.9c-1.3,0.2-2.2,0.3-3,0.3c-1.1,0.1-1.8,0.1-3.1,0.5c-0.4,0.2-0.7,0.3-1,0.4c-0.4,0.2-0.8,0.3-1.5,0.5
				c-1.9,0.4-3.5,0.3-4.9,0.2C323,54.7,322,54.6,320.8,54.2L320.8,54.2z"/>
		</g>
		<path d="M343.5,34.7c0.4,0,0.4-0.6,0-0.6C343.1,34.1,343.1,34.7,343.5,34.7L343.5,34.7z"/>
		<path d="M319.1,28.2c0.8-0.3,1.7-0.2,2.5,0.2s1.2,1.1,1.6,1.9c0.2,0.4,0.8,0,0.6-0.3c-0.4-0.8-1.1-1.6-1.9-2.1s-2-0.7-2.9-0.3
			c-0.2,0.1-0.3,0.2-0.2,0.4C318.7,28.1,318.9,28.2,319.1,28.2L319.1,28.2L319.1,28.2z"/>
		<path d="M332.7,23.1c-1.4,1.3-0.9,3.5,0.3,4.8c1.5,1.7,4,1.9,6.1,2.1c4.7,0.4,10,1.1,13.2,4.9c1.3,1.5,2.1,3.9,4.4,4.3
			c0.4,0.1,0.6-0.5,0.2-0.6c-1.8-0.3-2.7-2.2-3.7-3.6c-1.2-1.7-3-2.9-4.9-3.8c-2.2-1-4.6-1.4-7-1.6c-1.2-0.1-2.4-0.2-3.5-0.3
			c-1.1-0.1-2.2-0.4-3.1-0.9c-0.9-0.5-1.5-1.3-1.9-2.2c-0.3-0.9-0.2-1.8,0.5-2.5C333.5,23.3,333,22.8,332.7,23.1L332.7,23.1
			L332.7,23.1z"/>
		<path d="M326.9,45.8h-2.3c-0.2,0-0.3,0.1-0.4,0.3c-0.1,0.2-0.1,0.4-0.1,0.7c0.1,0.4,0.5,0.8,0.9,1c0.4,0.2,1,0.1,1.4-0.2
			c0.5-0.3,0.8-0.7,1.1-1.2c0.2-0.4-0.4-0.7-0.6-0.3c-0.3,0.5-0.8,1.2-1.4,1.2c0,0-0.1,0-0.1,0c0,0-0.1,0-0.1,0
			c-0.1,0-0.1,0-0.2-0.1c0,0-0.1,0-0.1,0c0,0-0.1-0.1,0,0c-0.1,0-0.1-0.1-0.2-0.2c0,0,0,0,0,0c0,0-0.1-0.1-0.1-0.1c0,0,0,0,0,0
			c0,0,0-0.1,0-0.1c0,0,0,0,0,0c0,0,0,0,0,0c0,0,0-0.1,0,0c0,0,0-0.1,0-0.1c0,0,0-0.1,0-0.1l-0.3,0.2h2.4
			C327.4,46.4,327.4,45.8,326.9,45.8L326.9,45.8L326.9,45.8z"/>
		<path d="M331.8,45.5h-1.5c-0.4,0-0.9-0.1-1.2,0.2c-0.2,0.2-0.2,0.4-0.2,0.6c0.1,0.2,0.2,0.3,0.4,0.5c0.4,0.2,0.8,0.2,1.2,0.1
			c0.5-0.1,1-0.2,1.4-0.5c0.3-0.2,0.2-0.6-0.2-0.6h-2c-0.4,0-0.4,0.7,0,0.6h2l-0.2-0.6c-0.4,0.2-0.8,0.4-1.2,0.5c-0.1,0-0.2,0-0.3,0
			c-0.1,0-0.2,0-0.2,0c-0.1,0-0.1,0-0.2-0.1c0,0,0,0-0.1,0c0,0,0,0,0,0c0,0,0,0,0,0c0,0,0,0,0,0c0,0,0,0,0,0c0,0,0,0,0,0
			c0,0,0,0,0,0c0,0,0,0,0,0c0,0,0,0,0,0c0,0,0,0,0,0c0,0,0,0,0,0c0,0,0,0,0.1,0c0,0,0,0,0.1,0c0,0,0,0,0,0c0,0,0.1,0,0.1,0
			c0.1,0,0.3,0,0.4,0h1.6C332.2,46.1,332.2,45.5,331.8,45.5L331.8,45.5L331.8,45.5z"/>
		<path d="M326.8,46.1l-1.9,0c-0.2,0-0.3,0.1-0.3,0.3c0,0.4,0.4,0.8,0.8,0.9c0.5,0.1,0.9-0.1,1.4-0.3c0.3-0.2,0.1-0.6-0.2-0.6h-0.9
			c-0.2,0-0.3,0.2-0.3,0.3s0.1,0.3,0.3,0.3h0.9l-0.2-0.6c-0.1,0.1-0.3,0.2-0.4,0.2c-0.1,0-0.2,0-0.3,0.1c0.1,0-0.1,0-0.1,0
			c0,0-0.1,0-0.1,0c0.1,0,0,0-0.1,0c0,0-0.1,0,0,0c0,0-0.1,0-0.1,0c0,0,0,0,0,0c0,0,0,0,0,0c0,0,0,0-0.1-0.1c0.1,0.1,0,0,0,0
			c0,0,0,0,0,0c0,0,0,0,0,0c0,0,0,0,0,0c0,0,0,0,0,0l-0.3,0.3l1.9,0c0.2,0,0.3-0.1,0.3-0.3S327,46.1,326.8,46.1L326.8,46.1
			L326.8,46.1z"/>
		<path d="M321.2,50.9c-1.2-0.2-2.5,0.2-3.4,1.1s-1.2,2.2-0.8,3.3c0.1,0.4,0.7,0.2,0.6-0.2c-0.3-0.9,0-2,0.7-2.7s1.8-1.1,2.8-0.9
			C321.4,51.6,321.6,51,321.2,50.9L321.2,50.9z"/>
		<path d="M343.1,46.6c1.1,0.1,2.1-0.2,3.2,0c0.8,0.1,1.6,0.4,2,1.1c0.2,0.3,0.8,0,0.6-0.3c-0.5-0.8-1.4-1.2-2.3-1.3
			c-1.2-0.2-2.3,0.1-3.5,0C342.6,45.9,342.6,46.6,343.1,46.6L343.1,46.6L343.1,46.6z"/>
		<g>
			<g>
				<path class="st165" d="M334.1,28.9c-0.4,0.5-0.8,1.3-0.9,2.3c-0.1,0.9,0.2,1.4,0.6,3c0.8,2.7,0.4,2.7,0.9,3.4
					c1.3,1.9,4.5,1.9,5.7,1.9c2.3,0,2.8-0.6,5.2-1.1c5.1-0.9,8,1.1,8.7,0c0.7-1.1-1.7-4-4.1-5.7c-1.6-1.1-3-1.6-4.1-1.9
					C343.5,30,339.5,29.1,334.1,28.9z"/>
				<path d="M340.4,39.9L340.4,39.9c-1.3,0-4.7,0-6.1-2.1c-0.3-0.4-0.3-0.7-0.4-1.1c-0.1-0.4-0.1-1.1-0.6-2.5
					c-0.1-0.3-0.2-0.6-0.3-0.9c-0.3-0.9-0.5-1.4-0.4-2.2c0.1-0.9,0.4-1.8,1-2.6l0.2-0.2h0.3c4.3,0.2,8.4,0.8,12.1,1.9
					c1.3,0.4,2.7,0.9,4.3,2c2.4,1.7,5.2,4.8,4.3,6.4c-0.5,0.8-1.5,0.6-2.8,0.4c-1.5-0.3-3.5-0.6-6.2-0.2c-1,0.2-1.6,0.4-2.2,0.5
					C342.6,39.7,341.8,40,340.4,39.9L340.4,39.9z M334.3,29.4c-0.4,0.6-0.6,1.2-0.6,1.8c0,0.6,0.1,1,0.4,1.9
					c0.1,0.3,0.2,0.6,0.3,0.9c0.4,1.5,0.5,2.2,0.6,2.6c0,0.4,0.1,0.4,0.2,0.7c1.1,1.7,4.2,1.7,5.2,1.7c1.3,0,2-0.2,2.8-0.5
					c0.6-0.2,1.3-0.4,2.3-0.6c2.9-0.5,5.1-0.1,6.6,0.2c0.8,0.2,1.6,0.3,1.8,0.1c0.4-0.6-1.3-3.2-4-5c-1.4-1-2.8-1.5-4-1.8
					C342.3,30.2,338.4,29.6,334.3,29.4L334.3,29.4z"/>
			</g>
			<g>
				<path class="st166" d="M334.1,29.3c0-0.4,0,2,1.4,4.5c0.4,0.7,1.2,1.6,2.4,2.1c0.7,0.3,1.9,0.2,4.4,0c1.6-0.1,1.9-0.2,2.2-0.4
					c1-0.7,1.5-2.1,1.4-2.8C345.3,29.7,333.5,28.2,334.1,29.3L334.1,29.3z"/>
				<path d="M339.1,36.6c-0.6,0-1.1-0.1-1.4-0.2c-1.4-0.5-2.2-1.6-2.7-2.3c-1-1.8-1.4-3.6-1.5-4.6c-0.1-0.1-0.1-0.2,0-0.4v-0.2
					l0.2,0c0.9-1,6.7,0.3,6.8,0.3c2.5,0.6,5.5,1.6,5.9,3.3c0.2,1-0.4,2.6-1.6,3.4c-0.5,0.3-0.9,0.4-2.5,0.5
					C340.9,36.5,339.9,36.6,339.1,36.6L339.1,36.6z M334.6,29.5c0.1,0.9,0.4,2.5,1.3,4c0.4,0.6,1,1.5,2.2,1.9
					c0.6,0.2,1.9,0.1,4.2-0.1c1.5-0.1,1.8-0.2,2-0.4c0.9-0.6,1.3-1.8,1.1-2.3c-0.1-0.4-0.6-0.9-1.6-1.4
					C341,29.9,335.8,29.3,334.6,29.5L334.6,29.5z"/>
			</g>
		</g>
		<g>
			<path d="M317.7,34.8c0.4-0.3,1.5-0.5,2.4-0.4c0.8,0,1.7,0.3,2.8,0.8c0.6,0.3,1,3.1,0.2,3.6c-0.8,0.6-1.4,1-2.4,1.1
				c-0.4,0-1.8,0-2.6-1.1C317.4,37.7,316.9,35.4,317.7,34.8z"/>
			<path d="M320.6,40.4c-0.6,0-2-0.1-2.8-1.3c-0.7-0.9-1.1-2.5-0.9-3.6c0.1-0.5,0.3-0.9,0.6-1.1l0,0c0.5-0.4,1.8-0.5,2.7-0.5
				c0.9,0,2,0.3,3,0.9c0.7,0.4,0.9,2,0.9,2.2c0,0.6,0,1.7-0.6,2.2c-0.8,0.6-1.5,1.1-2.6,1.2C320.7,40.4,320.6,40.4,320.6,40.4
				L320.6,40.4z M318,35.2c-0.1,0.1-0.2,0.2-0.2,0.5c-0.1,0.8,0.2,2.1,0.8,2.8c0.6,0.8,1.8,0.9,2.1,0.8c0.8,0,1.3-0.4,2.1-1
				c0.1,0,0.2-0.2,0.2-0.8c0.1-0.9-0.2-1.8-0.4-2c-0.9-0.5-1.8-0.8-2.6-0.8C319.2,34.8,318.2,35.1,318,35.2L318,35.2L318,35.2z"/>
		</g>
		<g>
			<path d="M334.9,29.5c0,0.5,0,0.7,0.2,1.5c0.2,0.7,0.4,1.5,1,2.2c0.3,0.3,0.9,1.1,1.9,1.5c0.2,0.1,2.1,0.7,3.3-0.4
				c0.7-0.7,0.8-1.7,0.8-2.2c0-0.2,0-0.8-0.2-1.3C340.9,28.6,334.9,28.5,334.9,29.5L334.9,29.5z"/>
			<path d="M339.5,35.4c-0.7,0-1.4-0.2-1.6-0.3c-1.2-0.4-1.9-1.3-2.1-1.6c-0.6-0.8-0.8-1.6-1.1-2.4c-0.2-0.7-0.2-1-0.2-1.4v-0.2
				c0-0.3,0.2-0.8,1.1-1c1.6-0.3,5.9,0,6.8,2c0.2,0.4,0.2,0.9,0.2,1.5c0,0.5,0,1.7-0.9,2.6C340.9,35.2,340.1,35.4,339.5,35.4z
				 M335.4,29.6L335.4,29.6c0,0.4,0,0.6,0.2,1.2c0.2,0.7,0.4,1.4,0.9,2c0.2,0.3,0.8,1,1.7,1.3c0.4,0.2,1.9,0.6,2.8-0.3
				c0.6-0.5,0.6-1.4,0.6-1.8c0-0.5,0-0.8-0.1-1.1c-0.2-0.5-1-1-2.2-1.3C337.5,29.3,335.8,29.4,335.4,29.6L335.4,29.6z M335.4,29.5
				L335.4,29.5z"/>
		</g>
	</g>
</g>
</svg>
